<svg width="12" height="29" viewBox="0 0 12 29" fill="none" xmlns="http://www.w3.org/2000/svg">
<path d="M0.283406 14.9145L10.4666 27.7458C10.6365 27.96 10.8623 28.0795 11.097 28.0795C11.3318 28.0795 11.5575 27.96 11.7274 27.7458L11.7384 27.7313C11.821 27.6274 11.8869 27.5024 11.9318 27.3639C11.9768 27.2254 12 27.0762 12 26.9254C12 26.7746 11.9768 26.6254 11.9318 26.4869C11.8869 26.3483 11.821 26.2233 11.7384 26.1195L2.14902 14.0373L11.7384 1.95997C11.821 1.85613 11.8869 1.73113 11.9318 1.59259C11.9768 1.45405 12 1.30486 12 1.15409C12 1.00332 11.9768 0.854126 11.9318 0.715584C11.8869 0.577044 11.821 0.452047 11.7384 0.348206L11.7274 0.333708C11.5575 0.119503 11.3318 7.62939e-06 11.097 7.62939e-06C10.8623 7.62939e-06 10.6365 0.119503 10.4666 0.333708L0.283406 13.165C0.193849 13.2778 0.122551 13.4135 0.0738354 13.5639C0.0251198 13.7143 0 13.8762 0 14.0397C0 14.2033 0.0251198 14.3652 0.0738354 14.5156C0.122551 14.6659 0.193849 14.8016 0.283406 14.9145Z" fill="white"/>
</svg>
