<svg width="12" height="29" viewBox="0 0 12 29" fill="none" xmlns="http://www.w3.org/2000/svg">
<path d="M11.7166 13.165L1.53338 0.333699C1.36346 0.119494 1.13772 0 0.902977 0C0.66823 0 0.442492 0.119494 0.272581 0.333699L0.261616 0.348198C0.17896 0.45204 0.113144 0.577033 0.0681686 0.715575C0.0231934 0.854116 0 1.00331 0 1.15408C0 1.30485 0.0231934 1.45404 0.0681686 1.59258C0.113144 1.73113 0.17896 1.85612 0.261616 1.95996L9.85098 14.0421L0.261616 26.1195C0.17896 26.2233 0.113144 26.3483 0.0681686 26.4869C0.0231934 26.6254 0 26.7746 0 26.9254C0 27.0762 0.0231934 27.2253 0.0681686 27.3639C0.113144 27.5024 0.17896 27.6274 0.261616 27.7313L0.272581 27.7458C0.442492 27.96 0.66823 28.0795 0.902977 28.0795C1.13772 28.0795 1.36346 27.96 1.53338 27.7458L11.7166 14.9145C11.8062 14.8016 11.8774 14.6659 11.9262 14.5156C11.9749 14.3652 12 14.2033 12 14.0397C12 13.8761 11.9749 13.7143 11.9262 13.5639C11.8774 13.4135 11.8062 13.2778 11.7166 13.165Z" fill="white"/>
</svg>
