<svg width="71" height="70" viewBox="0 0 71 70" fill="none" xmlns="http://www.w3.org/2000/svg">
<circle cx="35.5" cy="35" r="35" fill="#F0ECDB"/>
<path d="M49.3049 23.2469H44.276L41.7825 19.315C41.7211 19.2183 41.638 19.1389 41.5405 19.084C41.4431 19.0291 41.3342 19.0002 41.2236 19H30.4485C30.3379 19.0002 30.229 19.0291 30.1315 19.084C30.0341 19.1389 29.9509 19.2183 29.8896 19.315L27.3928 23.2469H22.3672C21.4742 23.2469 20.6177 23.6198 19.9862 24.2835C19.3548 24.9472 19 25.8474 19 26.786V46.605C19 47.5436 19.3548 48.4438 19.9862 49.1075C20.6177 49.7712 21.4742 50.1441 22.3672 50.1441H49.3049C50.1979 50.1441 51.0544 49.7712 51.6859 49.1075C52.3173 48.4438 52.6721 47.5436 52.6721 46.605V26.786C52.6721 25.8474 52.3173 24.9472 51.6859 24.2835C51.0544 23.6198 50.1979 23.2469 49.3049 23.2469ZM51.3252 46.605C51.3252 47.1681 51.1123 47.7083 50.7335 48.1065C50.3546 48.5047 49.8407 48.7284 49.3049 48.7284H22.3672C21.8314 48.7284 21.3175 48.5047 20.9386 48.1065C20.5597 47.7083 20.3469 47.1681 20.3469 46.605V26.786C20.3469 26.2228 20.5597 25.6827 20.9386 25.2845C21.3175 24.8863 21.8314 24.6626 22.3672 24.6626H27.7547C27.8656 24.6626 27.9748 24.6339 28.0726 24.579C28.1705 24.524 28.2538 24.4445 28.3154 24.3476L30.8071 20.4156H40.8616L43.3567 24.3476C43.4183 24.4445 43.5016 24.524 43.5994 24.579C43.6972 24.6339 43.8064 24.6626 43.9173 24.6626H49.3049C49.8407 24.6626 50.3546 24.8863 50.7335 25.2845C51.1123 25.6827 51.3252 26.2228 51.3252 26.786V46.605ZM35.836 28.9095C34.5041 28.9095 33.2021 29.3246 32.0946 30.1024C30.9871 30.8801 30.124 31.9856 29.6143 33.279C29.1045 34.5723 28.9712 35.9955 29.231 37.3686C29.4909 38.7416 30.1323 40.0028 31.0741 40.9927C32.0159 41.9826 33.2159 42.6568 34.5222 42.9299C35.8286 43.203 37.1826 43.0628 38.4132 42.5271C39.6437 41.9913 40.6955 41.0841 41.4355 39.9201C42.1755 38.7561 42.5705 37.3876 42.5705 35.9877C42.5705 34.1104 41.8609 32.3101 40.598 30.9826C39.335 29.6552 37.6221 28.9095 35.836 28.9095ZM35.836 41.6502C34.7705 41.6502 33.7289 41.3181 32.8429 40.6959C31.9569 40.0737 31.2664 39.1893 30.8586 38.1546C30.4508 37.1199 30.3441 35.9814 30.552 34.883C30.7599 33.7845 31.273 32.7756 32.0265 31.9836C32.7799 31.1917 33.7399 30.6524 34.785 30.4339C35.8301 30.2154 36.9133 30.3276 37.8978 30.7562C38.8822 31.1847 39.7236 31.9105 40.3156 32.8417C40.9076 33.7729 41.2236 34.8677 41.2236 35.9877C41.2236 37.4895 40.656 38.9298 39.6456 39.9917C38.6352 41.0536 37.2649 41.6502 35.836 41.6502Z" fill="#443C1C"/>
</svg>
