<svg width="71" height="70" viewBox="0 0 71 70" fill="none" xmlns="http://www.w3.org/2000/svg">
<circle cx="35.5" cy="35" r="35" fill="#F0ECDB"/>
<path d="M45.1061 23.625H26.1557C25.7666 23.6257 25.3935 23.7895 25.1183 24.0804C24.8431 24.3713 24.6882 24.7656 24.6875 25.177V45.2086C24.6882 45.62 24.8431 46.0143 25.1183 46.3052C25.3935 46.5961 25.7666 46.7599 26.1557 46.7606H45.1061C45.4953 46.7599 45.8684 46.5961 46.1436 46.3052C46.4188 46.0143 46.5737 45.62 46.5744 45.2086V25.177C46.5737 24.7656 46.4188 24.3713 46.1436 24.0804C45.8684 23.7895 45.4953 23.6257 45.1061 23.625ZM45.5321 45.2086C45.5318 45.3279 45.4868 45.4422 45.407 45.5266C45.3271 45.611 45.219 45.6585 45.1061 45.6589H26.1557C26.0429 45.6585 25.9347 45.611 25.8549 45.5266C25.7751 45.4422 25.7301 45.3279 25.7297 45.2086V25.177C25.7301 25.0577 25.7751 24.9434 25.8549 24.859C25.9347 24.7746 26.0429 24.7271 26.1557 24.7267H45.1061C45.219 24.7271 45.3271 24.7746 45.407 24.859C45.4868 24.9434 45.5318 25.0577 45.5321 25.177V45.2086Z" fill="#443C1C"/>
</svg>
