<svg width="85" height="86" viewBox="0 0 85 86" fill="none" xmlns="http://www.w3.org/2000/svg">
<g filter="url(#filter0_d_86_2401)">
<circle cx="42.5" cy="41" r="40" fill="#D0EE75"/>
</g>
<path d="M59.8843 38.5305L31.5829 21.3489C31.2253 21.1287 30.8145 21.0083 30.3938 21.0004C29.9731 20.9925 29.5581 21.0974 29.1924 21.3041C28.8293 21.5021 28.5269 21.7938 28.317 22.1484C28.1072 22.503 27.9976 22.9072 28 23.3184V57.6816C27.9976 58.0928 28.1072 58.497 28.317 58.8516C28.5269 59.2062 28.8293 59.4979 29.1924 59.6959C29.5581 59.9026 29.9731 60.0075 30.3938 59.9996C30.8145 59.9917 31.2253 59.8713 31.5829 59.6511L59.8843 42.4695C60.225 42.2639 60.5065 41.9747 60.702 41.6298C60.8974 41.2848 61 40.8958 61 40.5C61 40.1042 60.8974 39.7152 60.702 39.3702C60.5065 39.0253 60.225 38.7361 59.8843 38.5305ZM59.0633 41.1377L30.7618 58.3212C30.642 58.3943 30.5046 58.4341 30.364 58.4365C30.2233 58.4389 30.0847 58.4038 29.9624 58.3348C29.8431 58.2719 29.7434 58.1777 29.6742 58.0626C29.6049 57.9474 29.5687 57.8157 29.5695 57.6816V23.3184C29.5687 23.1843 29.6049 23.0526 29.6742 22.9374C29.7434 22.8223 29.8431 22.7281 29.9624 22.6652C30.0847 22.5962 30.2233 22.5611 30.364 22.5635C30.5046 22.5659 30.642 22.6057 30.7618 22.6788L59.0633 39.8623C59.1748 39.9279 59.2673 40.0212 59.3315 40.133C59.3957 40.2448 59.4295 40.3713 59.4295 40.5C59.4295 40.6287 59.3957 40.7552 59.3315 40.867C59.2673 40.9788 59.1748 41.0721 59.0633 41.1377Z" fill="#443C1C"/>
<defs>
<filter id="filter0_d_86_2401" x="-0.5" y="0" width="86" height="86" filterUnits="userSpaceOnUse" color-interpolation-filters="sRGB">
<feFlood flood-opacity="0" result="BackgroundImageFix"/>
<feColorMatrix in="SourceAlpha" type="matrix" values="0 0 0 0 0 0 0 0 0 0 0 0 0 0 0 0 0 0 127 0" result="hardAlpha"/>
<feOffset dy="2"/>
<feGaussianBlur stdDeviation="1.5"/>
<feComposite in2="hardAlpha" operator="out"/>
<feColorMatrix type="matrix" values="0 0 0 0 0 0 0 0 0 0 0 0 0 0 0 0 0 0 0.25 0"/>
<feBlend mode="normal" in2="BackgroundImageFix" result="effect1_dropShadow_86_2401"/>
<feBlend mode="normal" in="SourceGraphic" in2="effect1_dropShadow_86_2401" result="shape"/>
</filter>
</defs>
</svg>
