<svg width="78" height="79" viewBox="0 0 78 79" fill="none" xmlns="http://www.w3.org/2000/svg">
<circle cx="38.882" cy="39.312" r="38.382" fill="white" stroke="#9B937A"/>
<path d="M20.9159 44.2059C20.9159 42.622 21.1017 41.0645 21.4704 39.5278C21.8391 37.994 22.4143 36.5251 23.196 35.1269C23.3198 34.9116 23.4437 34.6874 23.5647 34.4574C23.6885 34.2273 23.836 34.0149 24.0042 33.8144C24.1489 33.6201 24.3291 33.455 24.5351 33.3277C24.7543 33.2089 24.9996 33.1467 25.2489 33.1467C25.4982 33.1467 25.7436 33.2089 25.9627 33.3277C26.1849 33.4421 26.3692 33.6183 26.4937 33.835L29.5584 38.8376C29.6912 39.0609 29.8817 39.2443 30.11 39.3685C30.353 39.4945 30.621 39.565 30.8946 39.575C31.1298 39.5854 31.364 39.5382 31.5769 39.4374C31.7897 39.3366 31.9747 39.1854 32.1157 38.9969C32.318 38.7315 32.4583 38.4242 32.5261 38.0975C32.594 37.7708 32.5878 37.4331 32.508 37.1091C32.4546 36.9189 32.3855 36.7334 32.3016 36.5546C31.6945 35.2637 31.1781 33.9322 30.7559 32.5696C30.3453 31.1856 30.1435 29.748 30.1572 28.3044C30.1572 26.3695 30.4816 24.6734 31.1246 23.2134C31.7706 21.7533 32.6673 20.4997 33.8206 19.4555C34.971 18.4114 36.316 17.5678 37.8528 16.9218C39.4397 16.2618 41.0932 15.7752 42.7846 15.4706C42.9958 15.4315 43.2131 15.4404 43.4203 15.4965C43.6276 15.5527 43.8196 15.6547 43.9822 15.795C44.3362 16.0989 44.5131 16.4764 44.5131 16.9218C44.5131 19.2255 44.9054 21.4229 45.6871 23.5113C46.4799 25.618 47.5749 27.5983 48.9376 29.3899L51.495 32.7289C52.3563 33.8497 53.1468 35.0178 53.8695 36.2331C54.5921 37.4454 55.1762 38.7048 55.6216 40.0115C56.064 41.3182 56.297 42.7163 56.3118 44.2059C56.3118 45.8489 56.1112 47.4476 55.713 48.9991C55.322 50.5282 54.733 51.9997 53.9609 53.3763C53.194 54.745 52.2855 55.9897 51.2413 57.1106C50.1906 58.2358 48.9977 59.2195 47.6929 60.0366C46.3714 60.8654 44.9497 61.5055 43.4306 61.9509C41.8644 62.4013 40.2435 62.6335 38.6138 62.6411C36.9845 62.6493 35.3624 62.4238 33.797 61.9716C32.3011 61.5374 30.8741 60.8939 29.5584 60.0602C28.2542 59.2323 27.0548 58.2498 25.9863 57.1342C24.9111 56.0127 23.9959 54.7482 23.2667 53.3763C22.5268 51.9874 21.9469 50.5189 21.5382 48.9991C21.1198 47.4359 20.9106 45.8241 20.9159 44.2059ZM53.3621 44.0437C53.3621 42.8638 53.1409 41.6928 52.6925 40.5425C52.233 39.3612 51.6622 38.2264 50.9876 37.1533C50.3115 36.0672 49.5729 35.0213 48.7754 34.0208C48.0202 33.074 47.2827 32.1132 46.5632 31.139C45.1984 29.3426 44.0749 27.3752 43.2212 25.287C42.3702 23.1877 41.8344 20.9742 41.6313 18.7181C40.4481 19.003 39.3033 19.4288 38.2215 19.9865C37.224 20.5009 36.3141 21.1699 35.5255 21.9686C34.753 22.7599 34.1499 23.7003 33.7528 24.7324C33.3198 25.8898 33.0999 27.116 33.1039 28.3516C33.1039 29.5816 33.269 30.7556 33.5906 31.8764C33.915 32.9973 34.3516 34.1064 34.9032 35.1948C35.1037 35.5959 35.2483 36.003 35.3427 36.4159C35.607 37.4534 35.5505 38.5467 35.1804 39.5514C34.9717 40.1233 34.6507 40.6478 34.2365 41.094C33.8244 41.538 33.3307 41.8986 32.7823 42.1559C32.1979 42.4237 31.561 42.5578 30.9182 42.5482C30.1041 42.5482 29.3666 42.3624 28.7059 41.9937C28.0244 41.6055 27.453 41.0502 27.0453 40.3802C26.7385 39.9053 26.4465 39.4364 26.1692 38.9762C25.8815 38.4967 25.5895 38.0198 25.2932 37.5456C24.3469 39.6382 23.8601 41.9093 23.8655 44.2059C23.8655 45.5893 24.0337 46.9255 24.3729 48.2174C24.7091 49.5064 25.187 50.7246 25.8005 51.8809C27.0339 54.1715 28.8346 56.1073 31.0303 57.5029C32.1216 58.1931 33.3074 58.7299 34.5816 59.1163C35.8559 59.4998 37.2009 59.6915 38.6138 59.6915C40.6579 59.7144 42.6813 59.2811 44.5367 58.4231C46.3072 57.5982 47.897 56.4313 49.2149 54.9898C50.5422 53.5354 51.575 51.8376 52.256 49.9901C52.9639 48.1024 53.3326 46.1173 53.3621 44.0437Z" fill="#443C1C"/>
</svg>
