<svg width="34" height="30" viewBox="0 0 34 30" fill="none" xmlns="http://www.w3.org/2000/svg">
<path id="Vector" d="M4 3.25H8.875L12.125 0H21.875L25.125 3.25H30C30.862 3.25 31.6886 3.59241 32.2981 4.2019C32.9076 4.8114 33.25 5.63805 33.25 6.5V26C33.25 26.862 32.9076 27.6886 32.2981 28.2981C31.6886 28.9076 30.862 29.25 30 29.25H4C3.13805 29.25 2.3114 28.9076 1.7019 28.2981C1.09241 27.6886 0.75 26.862 0.75 26V6.5C0.75 5.63805 1.09241 4.8114 1.7019 4.2019C2.3114 3.59241 3.13805 3.25 4 3.25ZM17 8.125C14.8451 8.125 12.7785 8.98102 11.2548 10.5048C9.73102 12.0285 8.875 14.0951 8.875 16.25C8.875 18.4049 9.73102 20.4715 11.2548 21.9952C12.7785 23.519 14.8451 24.375 17 24.375C19.1549 24.375 21.2215 23.519 22.7452 21.9952C24.269 20.4715 25.125 18.4049 25.125 16.25C25.125 14.0951 24.269 12.0285 22.7452 10.5048C21.2215 8.98102 19.1549 8.125 17 8.125ZM17 11.375C18.2929 11.375 19.5329 11.8886 20.4471 12.8029C21.3614 13.7171 21.875 14.9571 21.875 16.25C21.875 17.5429 21.3614 18.7829 20.4471 19.6971C19.5329 20.6114 18.2929 21.125 17 21.125C15.7071 21.125 14.4671 20.6114 13.5529 19.6971C12.6386 18.7829 12.125 17.5429 12.125 16.25C12.125 14.9571 12.6386 13.7171 13.5529 12.8029C14.4671 11.8886 15.7071 11.375 17 11.375Z" fill="#9B937A"/>
</svg>
