<svg width="79" height="78" viewBox="0 0 79 78" fill="none" xmlns="http://www.w3.org/2000/svg">
<circle cx="39.2687" cy="38.882" r="38.382" fill="white" stroke="#9B937A"/>
<path fill-rule="evenodd" clip-rule="evenodd" d="M23.4673 33.9474V19.8431H21.0757V33.9474C21.0757 36.1835 20.3021 38.3934 19.3407 40.6737C18.6674 42.2713 18.0851 44.2192 18.0851 46.1504C18.0863 48.9593 19.3466 50.82 21.01 51.9285C22.6075 52.9927 24.5041 53.3251 25.8589 53.3251C27.4935 53.3251 28.5697 52.976 29.4797 52.5299C29.7607 52.3924 30.0501 52.231 30.3036 52.0911C30.4148 52.0289 30.5189 51.9715 30.6133 51.9213C30.9342 51.7417 31.2703 51.5908 31.6178 51.4705C31.9454 51.3605 32.6545 51.2839 33.6458 51.2684C34.5881 51.254 35.6428 51.2947 36.5683 51.3485C37.5812 51.4071 38.4804 51.767 39.5817 52.2095C39.9177 52.3434 40.2741 52.4857 40.6579 52.6304C41.7939 53.0561 43.3042 53.3251 45.5894 53.3251C47.9606 53.3251 49.093 53.1888 49.8715 52.8552C50.1339 52.7375 50.3842 52.5945 50.6188 52.4283C50.6906 52.3798 50.7635 52.3331 50.8377 52.2884C51.1815 52.5237 51.5599 52.7041 51.9593 52.8229C52.9398 53.129 54.541 53.3251 57.5472 53.3251C58.5732 53.3251 59.4533 53.0788 60.1397 52.5598C60.8284 52.0373 61.2039 51.3306 61.3809 50.631C61.7217 49.2977 61.3976 47.8317 61.058 46.9265C60.9726 46.6986 60.8197 46.5022 60.6197 46.3635C60.4197 46.2249 60.1821 46.1505 59.9388 46.1504H55.5742L54.8244 45.5501C53.4313 44.4357 51.8469 43.656 50.241 43.082C48.1687 42.3406 45.5439 41.2047 43.1643 39.6944C40.8397 38.2188 38.8595 36.4538 37.7892 34.4473L36.615 22.1211L34.2354 22.3483L35.4312 34.9041C35.4447 35.0505 35.4853 35.1932 35.5507 35.325C36.8757 37.9736 39.327 40.0914 41.8824 41.7141C44.4569 43.3487 47.2563 44.554 49.4362 45.3337C50.8711 45.8479 52.2009 46.5139 53.3309 47.4168L54.0806 48.0182C54.5049 48.3575 55.0321 48.5422 55.5754 48.542H59.0407C59.146 49.061 59.1747 49.6086 59.0647 50.0403C58.9881 50.3369 58.8614 50.527 58.6964 50.6526C58.5266 50.7817 58.1941 50.9336 57.5472 50.9336C54.5745 50.9336 53.2854 50.7303 52.672 50.539C52.4017 50.4552 52.275 50.3751 52.1793 50.3094L52.1411 50.2807C52.0382 50.2017 51.7608 49.9913 51.5049 49.8645C51.2215 49.7226 50.8933 49.6989 50.5925 49.7988C50.0305 49.9865 49.6777 50.185 49.392 50.3715L49.1911 50.5043C49.0703 50.5856 49.026 50.6155 48.9304 50.6561C48.6625 50.7709 48.0013 50.9336 45.5894 50.9336C43.4824 50.9336 42.2806 50.6836 41.4974 50.3907C41.2403 50.295 40.9676 50.1838 40.6818 50.0678C39.5267 49.6015 38.1504 49.0442 36.7071 48.9605C35.6756 48.896 34.6422 48.8681 33.6088 48.8768C32.633 48.8924 31.5807 48.9605 30.8621 49.2009C30.3204 49.3814 29.8719 49.6038 29.4785 49.8155L29.0696 50.0403C28.8484 50.1635 28.6546 50.2711 28.4262 50.3835C27.8116 50.6848 27.0941 50.9336 25.8589 50.9336C24.8221 50.9336 23.4314 50.6681 22.3373 49.9387C21.3089 49.2535 20.4779 48.1235 20.4779 46.1504C20.4779 44.6629 20.9358 43.0486 21.5445 41.6028C22.5191 39.2902 23.4673 36.6977 23.4673 33.9474Z" fill="#443C1C"/>
<path fill-rule="evenodd" clip-rule="evenodd" d="M27.6527 35.3884C27.3356 35.3884 27.0314 35.5144 26.8072 35.7387C26.5829 35.9629 26.457 36.2671 26.457 36.5842V36.6105L26.4581 36.6584C26.4581 36.6954 26.4617 36.7468 26.4653 36.8102C26.5162 37.5483 26.6596 38.2771 26.8922 38.9794C27.3227 40.2756 28.2124 41.9019 30.0276 42.9912C30.2997 43.1544 30.6255 43.2028 30.9332 43.1258C31.241 43.0487 31.5056 42.8526 31.6688 42.5805C31.832 42.3084 31.8803 41.9826 31.8033 41.6748C31.7263 41.367 31.5301 41.1024 31.258 40.9393C30.0826 40.2349 29.4763 39.1707 29.1606 38.2248C28.9944 37.7225 28.8908 37.2016 28.8521 36.6739L28.8485 36.5926V36.5782C28.8469 36.2621 28.7203 35.9595 28.4962 35.7365C28.2721 35.5136 27.9688 35.3884 27.6527 35.3884Z" fill="#443C1C"/>
</svg>
