<svg width="29" height="17" viewBox="0 0 29 17" fill="none" xmlns="http://www.w3.org/2000/svg">
<path d="M14.9146 15.6349L27.7459 2.10529C27.9601 1.87955 28.0796 1.57962 28.0796 1.26773C28.0796 0.955845 27.9601 0.655926 27.7459 0.430178L27.7314 0.415609C27.6276 0.305792 27.5026 0.218348 27.364 0.158592C27.2255 0.0988369 27.0763 0.0680218 26.9255 0.0680218C26.7747 0.0680218 26.6255 0.0988369 26.487 0.158592C26.3485 0.218348 26.2235 0.305792 26.1196 0.415609L14.0374 13.1562L1.96009 0.415609C1.85625 0.305792 1.73126 0.218348 1.59271 0.158592C1.45417 0.0988369 1.30498 0.0680218 1.15421 0.0680218C1.00344 0.0680218 0.854248 0.0988369 0.715706 0.158592C0.577164 0.218348 0.452169 0.305792 0.348328 0.415609L0.33383 0.430178C0.119625 0.655926 0.0001297 0.955845 0.0001297 1.26773C0.0001297 1.57962 0.119625 1.87955 0.33383 2.10529L13.1651 15.6349C13.278 15.7539 13.4137 15.8486 13.564 15.9133C13.7144 15.9781 13.8763 16.0114 14.0399 16.0114C14.2034 16.0114 14.3653 15.9781 14.5157 15.9133C14.6661 15.8486 14.8018 15.7539 14.9146 15.6349Z" fill="#443C1C"/>
</svg>
