<svg width="22" height="25" viewBox="0 0 22 25" fill="none" xmlns="http://www.w3.org/2000/svg">
<path d="M11 3.75L21 3.75M0.999999 21.25H4.75M0.999999 3.75L6 3.75M9.75 21.25H21M17.25 12.5H21M0.999999 12.5L12.25 12.5" stroke="#443C1C" stroke-linecap="round"/>
<path d="M6 3.75C6 5.13071 7.11929 6.25 8.5 6.25C9.88071 6.25 11 5.13071 11 3.75C11 2.36929 9.88071 1.25 8.5 1.25C7.11929 1.25 6 2.36929 6 3.75Z" stroke="#443C1C" stroke-linecap="round"/>
<path d="M12.25 12.5C12.25 13.8807 13.3693 15 14.75 15C16.1307 15 17.25 13.8807 17.25 12.5C17.25 11.1193 16.1307 10 14.75 10C13.3693 10 12.25 11.1193 12.25 12.5Z" stroke="#443C1C" stroke-linecap="round"/>
<path d="M4.75 21.25C4.75 22.6307 5.86929 23.75 7.25 23.75C8.63071 23.75 9.75 22.6307 9.75 21.25C9.75 19.8693 8.63071 18.75 7.25 18.75C5.86929 18.75 4.75 19.8693 4.75 21.25Z" stroke="#443C1C" stroke-linecap="round"/>
</svg>
