<svg width="11" height="12" viewBox="0 0 11 12" fill="none" xmlns="http://www.w3.org/2000/svg">
<path d="M6.91453 6.00041L10.4495 2.46441C10.545 2.37216 10.6212 2.26181 10.6736 2.13981C10.726 2.01781 10.7536 1.88659 10.7548 1.75381C10.7559 1.62103 10.7306 1.48935 10.6803 1.36645C10.6301 1.24356 10.5558 1.1319 10.4619 1.03801C10.368 0.944118 10.2564 0.869865 10.1335 0.819584C10.0106 0.769303 9.87891 0.744001 9.74613 0.745155C9.61335 0.746309 9.48213 0.773895 9.36012 0.826304C9.23812 0.878713 9.12778 0.954895 9.03553 1.05041L5.49953 4.58541L1.96453 1.05041C1.87228 0.954895 1.76194 0.878713 1.63993 0.826304C1.51793 0.773895 1.38671 0.746309 1.25393 0.745155C1.12115 0.744001 0.98947 0.769303 0.866574 0.819584C0.743677 0.869865 0.632025 0.944118 0.538133 1.03801C0.44424 1.1319 0.369987 1.24356 0.319706 1.36645C0.269425 1.48935 0.244123 1.62103 0.245277 1.75381C0.246431 1.88659 0.274017 2.01781 0.326426 2.13981C0.378835 2.26181 0.455017 2.37216 0.550527 2.46441L4.08553 5.99941L0.550527 9.53541C0.455017 9.62765 0.378835 9.738 0.326426 9.86C0.274017 9.98201 0.246431 10.1132 0.245277 10.246C0.244123 10.3788 0.269425 10.5105 0.319706 10.6334C0.369987 10.7563 0.44424 10.8679 0.538133 10.9618C0.632025 11.0557 0.743677 11.1299 0.866574 11.1802C0.98947 11.2305 1.12115 11.2558 1.25393 11.2547C1.38671 11.2535 1.51793 11.2259 1.63993 11.1735C1.76194 11.1211 1.87228 11.0449 1.96453 10.9494L5.49953 7.41441L9.03553 10.9494C9.12778 11.0449 9.23812 11.1211 9.36012 11.1735C9.48213 11.2259 9.61335 11.2535 9.74613 11.2547C9.87891 11.2558 10.0106 11.2305 10.1335 11.1802C10.2564 11.1299 10.368 11.0557 10.4619 10.9618C10.5558 10.8679 10.6301 10.7563 10.6803 10.6334C10.7306 10.5105 10.7559 10.3788 10.7548 10.246C10.7536 10.1132 10.726 9.98201 10.6736 9.86C10.6212 9.738 10.545 9.62765 10.4495 9.53541L6.91453 6.00041Z" fill="#9B937A"/>
</svg>
