<svg width="28" height="29" viewBox="0 0 28 29" fill="none" xmlns="http://www.w3.org/2000/svg">
<circle cx="14.22" cy="14.4084" r="13.72" fill="white"/>
<path d="M12.1146 8.63129C11.6244 8.88336 12.0468 9.57571 12.5439 9.35725C12.9808 9.16652 13.4607 9.1161 13.5011 8.55903C13.5251 8.21454 13.5131 7.87844 13.9097 7.72468C14.0087 7.69032 14.1147 7.67937 14.2189 7.69273C14.323 7.70609 14.4225 7.74338 14.5092 7.80156C14.5958 7.85973 14.6672 7.93714 14.7174 8.02746C14.7677 8.11778 14.7954 8.21845 14.7983 8.32125C14.8395 8.70859 14.8283 9.01107 15.2687 9.18164C15.7895 9.34848 16.2711 9.61508 16.6856 9.96591C17.1 10.3167 17.439 10.7448 17.6828 11.2251C17.9586 11.8812 18.0801 12.5896 18.0382 13.2979V14.9952C18.0382 15.1066 18.0834 15.2135 18.1639 15.2922C18.2444 15.371 18.3536 15.4153 18.4675 15.4153C18.5813 15.4153 18.6905 15.371 18.771 15.2922C18.8515 15.2135 18.8967 15.1066 18.8967 14.9952C18.8967 13.6122 19.0555 12.1434 18.4494 10.8537C17.9277 9.77028 16.9994 8.92529 15.8576 8.49433C15.8284 8.48341 15.7246 8.43636 15.6628 8.41703V8.36746C15.6573 8.08903 15.5815 7.81625 15.4421 7.57344C15.3041 7.33919 15.1025 7.147 14.8595 7.01827C14.6166 6.88953 14.3419 6.82931 14.066 6.84429C13.7902 6.85926 13.524 6.94886 13.2971 7.10311C13.0702 7.25736 12.8915 7.47021 12.7808 7.71796C12.6911 7.92869 12.6464 8.15516 12.6494 8.38342V8.42711C12.4679 8.48671 12.2894 8.55485 12.1146 8.63129ZM7.77578 7.50538C7.38087 7.11888 6.77134 7.71544 7.16625 8.09354C8.07625 8.98419 8.98626 9.88323 9.89626 10.7739C9.57517 11.4117 9.40776 12.113 9.40692 12.824V16.6387C8.96239 16.6886 8.55219 16.8969 8.25452 17.2239C7.95686 17.5509 7.79256 17.9736 7.79295 18.4115V18.8569C7.79318 19.3292 7.985 19.7822 8.32627 20.1162C8.66754 20.4502 9.13033 20.6379 9.61296 20.6382H12.6949C12.7542 20.975 12.9331 21.2805 13.2002 21.5007C13.4672 21.7209 13.8052 21.8417 14.1544 21.8417C14.5036 21.8417 14.8416 21.7209 15.1086 21.5007C15.3756 21.2805 15.5546 20.975 15.6138 20.6382H18.6958C19.0461 20.6379 19.3889 20.5387 19.6831 20.3525L20.533 21.1843C20.6138 21.2634 20.7234 21.3079 20.8378 21.3079C20.9521 21.3079 21.0617 21.2634 21.1425 21.1843C21.2233 21.1052 21.2688 20.9979 21.2688 20.886C21.2688 20.7741 21.2233 20.6669 21.1425 20.5877L7.77578 7.50538ZM19.0478 19.7307C18.9356 19.774 18.8164 19.7967 18.6958 19.7979H9.61296C9.48663 19.7981 9.36149 19.774 9.24473 19.7267C9.12798 19.6795 9.02189 19.6102 8.93256 19.5228C8.84323 19.4354 8.77242 19.3315 8.72417 19.2173C8.67593 19.103 8.65122 18.9805 8.65144 18.8569V18.4115C8.65122 18.2879 8.67593 18.1654 8.72417 18.0512C8.77242 17.9369 8.84323 17.8331 8.93256 17.7456C9.02189 17.6582 9.12798 17.5889 9.24473 17.5417C9.36149 17.4945 9.48663 17.4703 9.61296 17.4705C9.6993 17.4703 9.78475 17.4533 9.86437 17.4206C9.94399 17.3879 10.0162 17.3401 10.0769 17.28C10.1375 17.2199 10.1854 17.1486 10.2178 17.0702C10.2501 16.9919 10.2663 16.908 10.2654 16.8235V12.824C10.2639 12.3398 10.3602 11.8601 10.5487 11.4124L19.0478 19.7307Z" fill="#9B937A"/>
</svg>
