<svg width="28" height="28" viewBox="0 0 28 28" fill="none" xmlns="http://www.w3.org/2000/svg">
<circle cx="13.72" cy="13.72" r="13.22" fill="white" stroke="white"/>
<g clip-path="url(#clip0_836_1737)">
<path d="M20.1307 18.0228C19.6964 17.6356 19.3161 17.1917 19.0002 16.7031C18.6553 16.0286 18.4486 15.2921 18.3922 14.5367V12.3117C18.3951 11.1251 17.9647 9.97833 17.1818 9.08675C16.3989 8.19518 15.3173 7.62019 14.1403 7.46982V6.8888C14.1403 6.72932 14.077 6.57638 13.9642 6.46362C13.8515 6.35086 13.6985 6.28751 13.5391 6.28751C13.3796 6.28751 13.2266 6.35086 13.1139 6.46362C13.0011 6.57638 12.9378 6.72932 12.9378 6.8888V7.47882C11.7713 7.64004 10.7028 8.2185 9.93021 9.10708C9.15756 9.99566 8.73312 11.1341 8.7355 12.3117V14.5367C8.67909 15.2921 8.47236 16.0286 8.12745 16.7031C7.81707 17.1906 7.44293 17.6344 7.01495 18.0228C6.96691 18.065 6.9284 18.1169 6.902 18.1752C6.8756 18.2334 6.8619 18.2966 6.86182 18.3606V18.9731C6.86182 19.0926 6.90927 19.2072 6.99374 19.2916C7.0782 19.3761 7.19277 19.4235 7.31222 19.4235H19.8335C19.9529 19.4235 20.0675 19.3761 20.1519 19.2916C20.2364 19.2072 20.2839 19.0926 20.2839 18.9731V18.3606C20.2838 18.2966 20.2701 18.2334 20.2437 18.1752C20.2173 18.1169 20.1788 18.065 20.1307 18.0228ZM7.79866 18.5227C8.21772 18.1179 8.58668 17.6643 8.89764 17.1715C9.33211 16.357 9.5856 15.4582 9.64081 14.5367V12.3117C9.62295 11.7838 9.71149 11.2577 9.90116 10.7648C10.0908 10.2719 10.3778 9.82218 10.7449 9.44245C11.112 9.06272 11.5517 8.76075 12.0379 8.55451C12.5242 8.34828 13.0469 8.24199 13.5751 8.24199C14.1032 8.24199 14.626 8.34828 15.1122 8.55451C15.5985 8.76075 16.0382 9.06272 16.4053 9.44245C16.7724 9.82218 17.0593 10.2719 17.249 10.7648C17.4387 11.2577 17.5272 11.7838 17.5094 12.3117V14.5367C17.5646 15.4582 17.8181 16.357 18.2525 17.1715C18.5635 17.6643 18.9325 18.1179 19.3515 18.5227H7.79866Z" fill="#443C1C"/>
<path d="M13.5953 20.9279C13.879 20.9214 14.1513 20.8147 14.3639 20.6268C14.5766 20.4388 14.7159 20.1817 14.7573 19.901H12.3882C12.4307 20.1894 12.5766 20.4525 12.7986 20.6414C13.0207 20.8303 13.3038 20.9321 13.5953 20.9279Z" fill="#443C1C"/>
</g>
<defs>
<clipPath id="clip0_836_1737">
<rect width="16.2145" height="16.2145" fill="white" transform="translate(5.48804 5.48804)"/>
</clipPath>
</defs>
</svg>
