<svg width="28" height="28" viewBox="0 0 28 28" fill="none" xmlns="http://www.w3.org/2000/svg">
<circle cx="13.7189" cy="14.0327" r="13.7189" fill="white"/>
<path d="M10.6155 13.6495C10.6155 13.8479 10.5571 14.0418 10.4478 14.2067C10.3384 14.3716 10.183 14.5002 10.0012 14.5761C9.81937 14.652 9.61929 14.6718 9.42627 14.6331C9.23324 14.5944 9.05594 14.4989 8.91678 14.3587C8.77761 14.2184 8.68284 14.0397 8.64445 13.8452C8.60605 13.6506 8.62576 13.449 8.70107 13.2657C8.77639 13.0825 8.90393 12.9258 9.06757 12.8156C9.2312 12.7054 9.42359 12.6466 9.6204 12.6466C9.88431 12.6466 10.1374 12.7523 10.324 12.9403C10.5106 13.1284 10.6155 13.3835 10.6155 13.6495ZM20.815 13.6495V19.1655C20.815 19.4979 20.6839 19.8168 20.4506 20.0519C20.2174 20.287 19.901 20.4191 19.5711 20.4191H12.6056C12.2757 20.4191 11.9594 20.287 11.7261 20.0519C11.4928 19.8168 11.3618 19.4979 11.3618 19.1655V18.5631C10.8642 19.1072 10.2709 19.4162 9.6204 19.4162C7.7764 19.4162 6.38641 16.9371 6.38641 13.6495C6.38641 10.3619 7.7764 7.88281 9.6204 7.88281H17.581C19.425 7.88281 20.815 10.3619 20.815 13.6495ZM11.3618 13.6495C11.3618 12.4423 11.1248 11.2726 10.7119 10.4402C10.3847 9.78081 9.97676 9.38717 9.6204 9.38717C9.26404 9.38717 8.85606 9.78081 8.52893 10.4402C8.11597 11.2726 7.87902 12.4423 7.87902 13.6495C7.87902 14.8567 8.11597 16.0264 8.52893 16.8588C8.85606 17.5182 9.26404 17.9118 9.6204 17.9118C9.97676 17.9118 10.3847 17.5182 10.7119 16.8588C11.1248 16.0264 11.3618 14.8567 11.3618 13.6495ZM19.3224 18.9147V14.4017H18.8248C18.6269 14.4017 18.4371 14.3224 18.2971 14.1814C18.1571 14.0403 18.0785 13.849 18.0785 13.6495C18.0785 13.45 18.1571 13.2587 18.2971 13.1176C18.4371 12.9766 18.6269 12.8973 18.8248 12.8973H19.2913C19.2148 11.9665 18.999 11.0977 18.6724 10.4402C18.3459 9.78269 17.9373 9.38717 17.581 9.38717H11.8431C12.3786 10.2716 12.7356 11.4908 12.8295 12.8973H13.3519C13.5499 12.8973 13.7397 12.9766 13.8796 13.1176C14.0196 13.2587 14.0982 13.45 14.0982 13.6495C14.0982 13.849 14.0196 14.0403 13.8796 14.1814C13.7397 14.3224 13.5499 14.4017 13.3519 14.4017H12.8544V18.9147H19.3224ZM16.3371 12.8973H15.8396C15.6417 12.8973 15.4518 12.9766 15.3119 13.1176C15.1719 13.2587 15.0933 13.45 15.0933 13.6495C15.0933 13.849 15.1719 14.0403 15.3119 14.1814C15.4518 14.3224 15.6417 14.4017 15.8396 14.4017H16.3371C16.5351 14.4017 16.7249 14.3224 16.8649 14.1814C17.0048 14.0403 17.0834 13.849 17.0834 13.6495C17.0834 13.45 17.0048 13.2587 16.8649 13.1176C16.7249 12.9766 16.5351 12.8973 16.3371 12.8973Z" fill="#9B937A"/>
</svg>
