<svg width="28" height="29" viewBox="0 0 28 29" fill="none" xmlns="http://www.w3.org/2000/svg">
<circle cx="13.7189" cy="14.5947" r="13.7189" fill="white"/>
<path d="M10.8402 19.3647H12.4176C12.5227 19.3647 12.6147 19.3259 12.6936 19.2484C12.7725 19.1708 12.8119 19.0804 12.8119 18.977C12.8119 18.8736 12.7725 18.7832 12.6936 18.7057C12.6147 18.6281 12.5227 18.5894 12.4176 18.5894H11.2345V17.8141H12.4176C12.5227 17.8141 12.6147 17.7753 12.6936 17.6978C12.7725 17.6202 12.8119 17.5298 12.8119 17.4264V15.8758C12.8119 15.7724 12.7725 15.682 12.6936 15.6044C12.6147 15.5269 12.5227 15.4882 12.4176 15.4882H10.8402C10.735 15.4882 10.643 15.5269 10.5642 15.6044C10.4853 15.682 10.4459 15.7724 10.4459 15.8758C10.4459 15.9792 10.4853 16.0696 10.5642 16.1472C10.643 16.2247 10.735 16.2635 10.8402 16.2635H12.0232V17.0388H10.8402C10.735 17.0388 10.643 17.0775 10.5642 17.1551C10.4853 17.2326 10.4459 17.323 10.4459 17.4264V18.977C10.4459 19.0804 10.4853 19.1708 10.5642 19.2484C10.643 19.3259 10.735 19.3647 10.8402 19.3647ZM16.361 19.3647C16.4662 19.3647 16.5582 19.3259 16.637 19.2484C16.7159 19.1708 16.7553 19.0804 16.7553 18.977V15.8758C16.7553 15.7724 16.7159 15.682 16.637 15.6044C16.5582 15.5269 16.4662 15.4882 16.361 15.4882C16.2558 15.4882 16.1638 15.5269 16.085 15.6044C16.0061 15.682 15.9667 15.7724 15.9667 15.8758V17.0388H15.178V15.8758C15.178 15.7724 15.1385 15.682 15.0597 15.6044C14.9808 15.5269 14.8888 15.4882 14.7836 15.4882C14.6785 15.4882 14.5865 15.5269 14.5076 15.6044C14.4287 15.682 14.3893 15.7724 14.3893 15.8758V17.4264C14.3893 17.5298 14.4287 17.6202 14.5076 17.6978C14.5865 17.7753 14.6785 17.8141 14.7836 17.8141H15.9667V18.977C15.9667 19.0804 16.0061 19.1708 16.085 19.2484C16.1638 19.3259 16.2558 19.3647 16.361 19.3647ZM20.6988 13.9763V20.14C20.6988 20.5664 20.5444 20.9316 20.2358 21.2355C19.9266 21.5389 19.5552 21.6906 19.1214 21.6906H8.0798C7.64602 21.6906 7.27482 21.5389 6.96618 21.2355C6.65701 20.9316 6.50243 20.5664 6.50243 20.14V13.9763C6.2001 13.705 5.96691 13.3561 5.80287 12.9296C5.63829 12.5032 5.63488 12.038 5.79261 11.5341L6.62073 8.89806C6.72589 8.5621 6.91333 8.28428 7.18306 8.06461C7.45227 7.84494 7.76433 7.73511 8.11923 7.73511H19.082C19.4369 7.73511 19.7458 7.84158 20.0087 8.05453C20.2716 8.268 20.4622 8.54918 20.5805 8.89806L21.4086 11.5341C21.5663 12.038 21.5632 12.4968 21.3991 12.9103C21.2345 13.3238 21.0011 13.6791 20.6988 13.9763ZM15.3357 13.1622C15.6906 13.1622 15.9601 13.0426 16.1441 12.8033C16.3281 12.5645 16.4004 12.2965 16.361 11.9993L15.9272 9.28572H14.3893V12.1543C14.3893 12.4257 14.4813 12.6616 14.6653 12.8622C14.8493 13.0622 15.0728 13.1622 15.3357 13.1622ZM11.7866 13.1622C12.089 13.1622 12.3355 13.0622 12.5264 12.8622C12.7167 12.6616 12.8119 12.4257 12.8119 12.1543V9.28572H11.274L10.8402 11.9993C10.7876 12.3094 10.8568 12.5808 11.0476 12.8134C11.238 13.0459 11.4843 13.1622 11.7866 13.1622ZM8.27697 13.1622C8.51358 13.1622 8.72048 13.0782 8.89767 12.9103C9.07538 12.7423 9.18396 12.5291 9.22339 12.2706L9.65717 9.28572H8.11923L7.33055 11.883C7.25168 12.1414 7.29427 12.4192 7.45832 12.7164C7.62289 13.0136 7.89577 13.1622 8.27697 13.1622ZM18.9242 13.1622C19.3054 13.1622 19.5815 13.0136 19.7523 12.7164C19.9232 12.4192 19.9627 12.1414 19.8706 11.883L19.0425 9.28572H17.544L17.9778 12.2706C18.0172 12.5291 18.1258 12.7423 18.3035 12.9103C18.4807 13.0782 18.6876 13.1622 18.9242 13.1622Z" fill="#9B937A"/>
</svg>
