<svg width="28" height="28" viewBox="0 0 28 28" fill="none" xmlns="http://www.w3.org/2000/svg">
<circle cx="13.9078" cy="13.9078" r="13.9078" fill="white"/>
<path d="M13.9079 21.3774C9.789 21.3774 6.43842 18.0268 6.43842 13.9079C6.43842 9.78906 9.789 6.43848 13.9079 6.43848C18.0267 6.43848 21.3773 9.78906 21.3773 13.9079C21.3773 18.0268 18.0267 21.3774 13.9079 21.3774ZM13.9079 7.50554C10.3759 7.50554 7.50548 10.3759 7.50548 13.9079C7.50548 17.4399 10.3759 20.3103 13.9079 20.3103C17.4398 20.3103 20.3102 17.4399 20.3102 13.9079C20.3102 10.3759 17.4398 7.50554 13.9079 7.50554Z" fill="#9B937A"/>
<path d="M16.042 16.5756C15.946 16.5756 15.8499 16.5542 15.7645 16.5009L13.0969 14.9003C13.0179 14.8528 12.9527 14.7855 12.9077 14.705C12.8628 14.6245 12.8397 14.5336 12.8408 14.4414V10.1732C12.8408 9.8744 13.0755 9.63965 13.3743 9.63965C13.6731 9.63965 13.9079 9.8744 13.9079 10.1732V14.1427L16.3194 15.5832C16.4188 15.6441 16.4955 15.7357 16.5381 15.8441C16.5807 15.9526 16.5868 16.0719 16.5554 16.1841C16.524 16.2963 16.4569 16.3952 16.3643 16.4659C16.2716 16.5365 16.1585 16.575 16.042 16.5756Z" fill="#9B937A"/>
</svg>
