<svg width="28" height="28" viewBox="0 0 28 28" fill="none" xmlns="http://www.w3.org/2000/svg">
<circle cx="13.7189" cy="13.7189" r="13.7189" fill="white"/>
<path d="M9.30619 13.949C9.9269 13.6634 10.5707 13.4492 11.2377 13.3064C11.9046 13.1636 12.5814 13.0922 13.2682 13.0922C13.6644 13.0922 14.0573 13.117 14.4469 13.1667C14.8364 13.2164 15.2227 13.2909 15.6057 13.3902C16.2661 13.5641 16.7712 13.6821 17.1212 13.7441C17.4712 13.8062 17.8442 13.8373 18.2404 13.8373H18.6168L19.3102 7.87664H8.59303L9.30619 13.949ZM9.99953 21.2881C9.59013 21.2881 9.23355 21.1639 8.9298 20.9155C8.62605 20.6672 8.45436 20.3505 8.41474 19.9656L6.929 7.20606C6.90259 6.98254 6.96862 6.79006 7.1271 6.62863C7.28558 6.46719 7.48368 6.38647 7.7214 6.38647H20.2016C20.4393 6.38647 20.6374 6.46719 20.7959 6.62863C20.9544 6.79006 21.0204 6.98254 20.994 7.20606L19.5083 19.9656C19.4687 20.3505 19.297 20.6672 18.9932 20.9155C18.6895 21.1639 18.3329 21.2881 17.9235 21.2881H9.99953Z" fill="#9B937A"/>
</svg>
