<svg width="28" height="29" viewBox="0 0 28 29" fill="none" xmlns="http://www.w3.org/2000/svg">
<circle cx="13.9078" cy="14.5001" r="13.9078" fill="white"/>
<path fill-rule="evenodd" clip-rule="evenodd" d="M8.25571 12.7349V7.68994H7.40027V12.7349C7.40027 13.5348 7.12353 14.3252 6.77964 15.1409C6.53883 15.7123 6.33053 16.4091 6.33053 17.0999C6.33096 18.1046 6.78178 18.7701 7.37674 19.1666C7.94818 19.5473 8.62655 19.6662 9.11116 19.6662C9.69586 19.6662 10.0808 19.5413 10.4063 19.3818C10.5068 19.3326 10.6103 19.2748 10.701 19.2248C10.7408 19.2026 10.778 19.182 10.8118 19.1641C10.9266 19.0998 11.0468 19.0459 11.1711 19.0028C11.2883 18.9635 11.5419 18.9361 11.8965 18.9305C12.2335 18.9254 12.6108 18.9399 12.9419 18.9592C13.3041 18.9801 13.6258 19.1089 14.0197 19.2671C14.1399 19.315 14.2674 19.3659 14.4047 19.4177C14.811 19.57 15.3512 19.6662 16.1686 19.6662C17.0168 19.6662 17.4218 19.6174 17.7003 19.4981C17.7941 19.456 17.8837 19.4049 17.9676 19.3454C17.9933 19.3281 18.0194 19.3114 18.0459 19.2954C18.1689 19.3796 18.3042 19.4441 18.4471 19.4866C18.7978 19.5961 19.3705 19.6662 20.4458 19.6662C20.8128 19.6662 21.1276 19.5781 21.3731 19.3925C21.6195 19.2055 21.7538 18.9528 21.8171 18.7025C21.939 18.2256 21.8231 17.7012 21.7016 17.3775C21.6711 17.2959 21.6164 17.2257 21.5448 17.1761C21.4733 17.1265 21.3883 17.0999 21.3013 17.0999H19.7401L19.4719 16.8851C18.9736 16.4865 18.4069 16.2076 17.8325 16.0023C17.0912 15.7371 16.1524 15.3308 15.3012 14.7906C14.4697 14.2628 13.7614 13.6315 13.3786 12.9137L12.9585 8.50476L12.1074 8.58602L12.5351 13.0771C12.5399 13.1295 12.5544 13.1806 12.5779 13.2277C13.0518 14.1751 13.9286 14.9326 14.8427 15.513C15.7635 16.0977 16.7649 16.5289 17.5446 16.8077C18.0579 16.9916 18.5335 17.2299 18.9377 17.5528L19.2059 17.768C19.3576 17.8893 19.5462 17.9554 19.7405 17.9553H20.9801C21.0177 18.1409 21.028 18.3368 20.9886 18.4912C20.9612 18.5973 20.9159 18.6653 20.8569 18.7102C20.7961 18.7564 20.6772 18.8108 20.4458 18.8108C19.3825 18.8108 18.9214 18.738 18.702 18.6696C18.6053 18.6397 18.56 18.611 18.5258 18.5875L18.5121 18.5772C18.4753 18.549 18.3761 18.4737 18.2846 18.4284C18.1832 18.3776 18.0658 18.3691 17.9582 18.4048C17.7572 18.472 17.631 18.543 17.5288 18.6097L17.4569 18.6572C17.4137 18.6863 17.3979 18.697 17.3637 18.7115C17.2679 18.7526 17.0313 18.8108 16.1686 18.8108C15.415 18.8108 14.9851 18.7214 14.7049 18.6166C14.613 18.5824 14.5155 18.5426 14.4132 18.5011C14 18.3343 13.5077 18.135 12.9915 18.105C12.6225 18.0819 12.2529 18.072 11.8832 18.0751C11.5342 18.0806 11.1578 18.105 10.9008 18.191C10.707 18.2556 10.5466 18.3351 10.4059 18.4108L10.2596 18.4912C10.1805 18.5353 10.1112 18.5738 10.0295 18.614C9.80963 18.7218 9.553 18.8108 9.11116 18.8108C8.74033 18.8108 8.24288 18.7158 7.85152 18.4549C7.48367 18.2098 7.1864 17.8056 7.1864 17.0999C7.1864 16.5678 7.35022 15.9903 7.56793 15.4732C7.91653 14.646 8.25571 13.7187 8.25571 12.7349Z" fill="#9B937A"/>
<path fill-rule="evenodd" clip-rule="evenodd" d="M9.75275 13.2505C9.63931 13.2505 9.53051 13.2956 9.4503 13.3758C9.37009 13.456 9.32502 13.5648 9.32502 13.6782V13.6876L9.32545 13.7047C9.32545 13.718 9.32673 13.7364 9.32802 13.7591C9.34621 14.0231 9.39751 14.2837 9.48071 14.5349C9.6347 14.9986 9.95292 15.5803 10.6022 15.97C10.6995 16.0283 10.8161 16.0456 10.9262 16.0181C11.0363 15.9905 11.1309 15.9204 11.1893 15.823C11.2476 15.7257 11.2649 15.6092 11.2374 15.4991C11.2098 15.389 11.1397 15.2943 11.0423 15.236C10.6219 14.9841 10.405 14.6034 10.2921 14.265C10.2327 14.0854 10.1956 13.899 10.1818 13.7103L10.1805 13.6812V13.6761C10.1799 13.563 10.1346 13.4548 10.0544 13.375C9.97429 13.2953 9.86582 13.2505 9.75275 13.2505Z" fill="#9B937A"/>
</svg>
