<svg width="29" height="29" viewBox="0 0 29 29" fill="none" xmlns="http://www.w3.org/2000/svg">
<circle cx="14.4078" cy="14.5001" r="13.9078" fill="white"/>
<path d="M7.98142 16.2506C7.98142 15.684 8.04789 15.127 8.17977 14.5773C8.31166 14.0286 8.5174 13.5032 8.79699 13.0031C8.8413 12.9261 8.88562 12.8459 8.92887 12.7636C8.97319 12.6813 9.02594 12.6054 9.08608 12.5336C9.13786 12.4641 9.20229 12.4051 9.27599 12.3595C9.35439 12.3171 9.44215 12.2948 9.53132 12.2948C9.62049 12.2948 9.70825 12.3171 9.78665 12.3595C9.8661 12.4005 9.93205 12.4635 9.97656 12.541L11.0728 14.3304C11.1203 14.4103 11.1884 14.4759 11.2701 14.5203C11.357 14.5654 11.4529 14.5906 11.5507 14.5942C11.6349 14.5979 11.7187 14.581 11.7948 14.5449C11.8709 14.5089 11.9371 14.4548 11.9875 14.3874C12.0599 14.2924 12.11 14.1825 12.1343 14.0657C12.1586 13.9488 12.1564 13.828 12.1279 13.7121C12.1087 13.6441 12.084 13.5777 12.054 13.5138C11.8369 13.052 11.6521 12.5758 11.5011 12.0884C11.3543 11.5933 11.2821 11.0791 11.287 10.5628C11.287 9.87064 11.403 9.26398 11.633 8.74172C11.8641 8.21946 12.1848 7.77106 12.5974 7.39757C13.0088 7.02408 13.4899 6.72233 14.0396 6.49127C14.6073 6.2552 15.1987 6.08116 15.8037 5.97218C15.8793 5.95821 15.957 5.96138 16.0311 5.98147C16.1053 6.00155 16.1739 6.03804 16.2321 6.08824C16.3587 6.19691 16.422 6.33196 16.422 6.49127C16.422 7.31528 16.5623 8.1013 16.8419 8.84828C17.1255 9.60185 17.5172 10.3102 18.0046 10.951L18.9193 12.1454C19.2274 12.5463 19.5102 12.9641 19.7687 13.3988C20.0272 13.8324 20.2361 14.2829 20.3954 14.7503C20.5537 15.2177 20.637 15.7178 20.6423 16.2506C20.6423 16.8383 20.5705 17.4101 20.4281 17.9651C20.2883 18.512 20.0776 19.0384 19.8014 19.5308C19.5271 20.0203 19.2021 20.4656 18.8286 20.8665C18.4528 21.269 18.0261 21.6208 17.5594 21.9131C17.0867 22.2096 16.5781 22.4385 16.0348 22.5979C15.4746 22.759 14.8948 22.842 14.3118 22.8447C13.729 22.8477 13.1488 22.767 12.5889 22.6052C12.0538 22.4499 11.5434 22.2198 11.0728 21.9216C10.6063 21.6254 10.1773 21.274 9.79509 20.8749C9.41049 20.4738 9.08314 20.0215 8.82231 19.5308C8.55762 19.034 8.3502 18.5087 8.20404 17.9651C8.05438 17.4059 7.97952 16.8294 7.98142 16.2506ZM19.5872 16.1926C19.5872 15.7705 19.5081 15.3517 19.3477 14.9402C19.1833 14.5177 18.9791 14.1118 18.7379 13.7279C18.496 13.3394 18.2318 12.9653 17.9466 12.6075C17.6764 12.2688 17.4126 11.9251 17.1553 11.5767C16.6671 10.9341 16.2652 10.2304 15.9599 9.48343C15.6555 8.73255 15.4638 7.94077 15.3912 7.13381C14.9679 7.23569 14.5585 7.38801 14.1715 7.58748C13.8147 7.7715 13.4892 8.01079 13.2072 8.29648C12.9309 8.57953 12.7151 8.9159 12.5731 9.28508C12.4182 9.69905 12.3396 10.1376 12.341 10.5796C12.341 11.0196 12.4001 11.4395 12.5151 11.8404C12.6311 12.2414 12.7873 12.6381 12.9846 13.0274C13.0563 13.1709 13.108 13.3165 13.1418 13.4642C13.2363 13.8353 13.2161 14.2263 13.0837 14.5857C13.0091 14.7903 12.8943 14.9779 12.7461 15.1375C12.5987 15.2963 12.4221 15.4253 12.226 15.5173C12.0169 15.6131 11.7891 15.6611 11.5592 15.6577C11.268 15.6577 11.0042 15.5912 10.7679 15.4593C10.5241 15.3204 10.3197 15.1218 10.1739 14.8822C10.0641 14.7123 9.95968 14.5446 9.8605 14.38C9.7576 14.2085 9.65315 14.0379 9.54715 13.8683C9.20868 14.6168 9.03455 15.4291 9.03649 16.2506C9.03649 16.7454 9.09663 17.2234 9.21796 17.6855C9.33824 18.1465 9.50916 18.5823 9.72862 18.9959C10.1698 19.8152 10.8139 20.5076 11.5993 21.0068C11.9896 21.2537 12.4138 21.4457 12.8696 21.5839C13.3254 21.7211 13.8065 21.7897 14.3118 21.7897C15.043 21.7979 15.7668 21.6429 16.4304 21.336C17.0637 21.0409 17.6324 20.6235 18.1038 20.1079C18.5785 19.5877 18.948 18.9804 19.1916 18.3196C19.4448 17.6443 19.5767 16.9343 19.5872 16.1926Z" fill="#9B937A"/>
</svg>
