<svg width="28" height="28" viewBox="0 0 28 28" fill="none" xmlns="http://www.w3.org/2000/svg">
<circle cx="13.7189" cy="14.1569" r="13.7189" fill="white"/>
<path d="M13.1731 7.20105V6.6579C13.1731 6.51384 13.2307 6.37569 13.333 6.27383C13.4354 6.17197 13.5742 6.11475 13.719 6.11475C13.8638 6.11475 14.0026 6.17197 14.105 6.27383C14.2073 6.37569 14.2648 6.51384 14.2648 6.6579V7.20105C14.2648 7.3451 14.2073 7.48325 14.105 7.58511C14.0026 7.68697 13.8638 7.7442 13.719 7.7442C13.5742 7.7442 13.4354 7.68697 13.333 7.58511C13.2307 7.48325 13.1731 7.3451 13.1731 7.20105ZM18.6316 9.37365C18.7033 9.37371 18.7743 9.35971 18.8406 9.33245C18.9069 9.30519 18.9671 9.2652 19.0178 9.21478L19.5636 8.67163C19.6661 8.56971 19.7236 8.43148 19.7236 8.28735C19.7236 8.14322 19.6661 8.00499 19.5636 7.90307C19.4612 7.80115 19.3223 7.7439 19.1775 7.7439C19.0326 7.7439 18.8937 7.80115 18.7913 7.90307L18.2454 8.44622C18.169 8.52218 18.1169 8.619 18.0958 8.72442C18.0747 8.82984 18.0856 8.93911 18.1269 9.03841C18.1683 9.13771 18.2383 9.22257 18.3281 9.28225C18.418 9.34193 18.5236 9.37374 18.6316 9.37365ZM8.42019 9.21478C8.52261 9.3167 8.66152 9.37395 8.80637 9.37395C8.95122 9.37395 9.09014 9.3167 9.19256 9.21478C9.29498 9.11286 9.35252 8.97463 9.35252 8.8305C9.35252 8.68637 9.29498 8.54814 9.19256 8.44622L8.64671 7.90307C8.54429 7.80115 8.40537 7.7439 8.26053 7.7439C8.11568 7.7439 7.97676 7.80115 7.87434 7.90307C7.77192 8.00499 7.71438 8.14322 7.71438 8.28735C7.71438 8.43148 7.77192 8.56971 7.87434 8.67163L8.42019 9.21478ZM20.815 18.0641V19.6935C20.815 19.9816 20.7 20.2579 20.4952 20.4617C20.2905 20.6654 20.0128 20.7798 19.7233 20.7798H7.71468C7.42514 20.7798 7.14747 20.6654 6.94274 20.4617C6.738 20.2579 6.62299 19.9816 6.62299 19.6935V18.0641C6.62299 17.776 6.738 17.4997 6.94274 17.2959C7.14747 17.0922 7.42514 16.9778 7.71468 16.9778V14.8052C7.71466 14.0167 7.87146 13.2361 8.17606 12.5082C8.48066 11.7803 8.92703 11.1197 9.48943 10.5643C10.0518 10.0089 10.7192 9.56974 11.4529 9.27217C12.1867 8.97461 12.9724 8.8245 13.7647 8.8305C17.05 8.85494 19.7233 11.5659 19.7233 14.8731V16.9778C20.0128 16.9778 20.2905 17.0922 20.4952 17.2959C20.7 17.4997 20.815 17.776 20.815 18.0641ZM14.1748 12.0819C15.4705 12.2985 16.4482 13.469 16.4482 14.8052C16.4482 14.9492 16.5057 15.0874 16.6081 15.1892C16.7105 15.2911 16.8493 15.3483 16.9941 15.3483C17.1388 15.3483 17.2777 15.2911 17.38 15.1892C17.4824 15.0874 17.5399 14.9492 17.5399 14.8052C17.5399 12.9449 16.1705 11.3134 14.3549 11.0106C14.2839 10.9981 14.2111 10.9997 14.1407 11.0154C14.0704 11.031 14.0038 11.0604 13.9449 11.1018C13.886 11.1432 13.836 11.1958 13.7976 11.2566C13.7593 11.3173 13.7334 11.385 13.7215 11.4558C13.7096 11.5266 13.7119 11.599 13.7283 11.6689C13.7447 11.7387 13.7748 11.8047 13.817 11.8629C13.8591 11.9211 13.9124 11.9704 13.9738 12.008C14.0353 12.0456 14.1035 12.0708 14.1748 12.0819ZM19.7233 19.6935V18.0641H7.71468V19.6935H19.7233Z" fill="#9B937A"/>
</svg>
