<svg width="13" height="29" viewBox="0 0 13 29" fill="none" xmlns="http://www.w3.org/2000/svg">
<path d="M0.351521 14.9145L10.5347 27.7458C10.7047 27.96 10.9304 28.0795 11.1651 28.0795C11.3999 28.0795 11.6256 27.96 11.7955 27.7458L11.8065 27.7313C11.8892 27.6274 11.955 27.5024 11.9999 27.3639C12.0449 27.2254 12.0681 27.0762 12.0681 26.9254C12.0681 26.7746 12.0449 26.6254 11.9999 26.4869C11.955 26.3483 11.8892 26.2233 11.8065 26.1195L2.21713 14.0373L11.8065 1.95997C11.8892 1.85613 11.955 1.73113 11.9999 1.59259C12.0449 1.45405 12.0681 1.30486 12.0681 1.15409C12.0681 1.00332 12.0449 0.854126 11.9999 0.715584C11.955 0.577044 11.8892 0.452047 11.8065 0.348206L11.7955 0.333708C11.6256 0.119503 11.3999 7.62939e-06 11.1651 7.62939e-06C10.9304 7.62939e-06 10.7047 0.119503 10.5347 0.333708L0.351521 13.165C0.261964 13.2778 0.190666 13.4135 0.141951 13.5639C0.093235 13.7143 0.0681152 13.8762 0.0681152 14.0397C0.0681152 14.2033 0.093235 14.3652 0.141951 14.5156C0.190666 14.6659 0.261964 14.8016 0.351521 14.9145Z" fill="#443C1C"/>
</svg>
