<svg width="41" height="34" viewBox="0 0 41 34" fill="none" xmlns="http://www.w3.org/2000/svg">
<path d="M18.4584 33.127L16.0982 30.9996C12.9949 28.1589 10.4094 25.7137 8.34192 23.6639C6.27575 21.614 4.63357 19.7908 3.41537 18.1942C2.19718 16.5976 1.33696 15.1372 0.834707 13.8128C0.333819 12.4885 0.083374 11.1484 0.083374 9.79277C0.083374 7.19577 0.965374 5.01731 2.72937 3.2574C4.49337 1.49748 6.67387 0.61752 9.27087 0.61752C11.0675 0.61752 12.7519 1.0769 14.324 1.99565C15.8961 2.9144 17.2742 4.25033 18.4584 6.00344C19.6425 4.25033 21.0207 2.9144 22.5927 1.99565C24.1648 1.0769 25.8492 0.61684 27.6459 0.615479C30.0101 0.615479 32.0164 1.35048 33.6647 2.82048C35.3144 4.29048 36.3216 6.12049 36.6864 8.31052H34.5875C34.2636 6.63635 33.4537 5.27524 32.158 4.22719C30.8622 3.17913 29.3581 2.6551 27.6459 2.6551C25.9894 2.6551 24.4854 3.12333 23.1338 4.05977C21.7836 4.99621 20.4987 6.41313 19.2791 8.31052H17.6376C16.399 6.38727 15.1012 4.96423 13.7442 4.0414C12.3871 3.11856 10.896 2.65715 9.27087 2.65715C7.27957 2.65715 5.59043 3.33566 4.20346 4.69269C2.81785 6.05108 2.12504 7.7511 2.12504 9.79277C2.12504 10.9415 2.36323 12.1073 2.83962 13.2901C3.31601 14.4743 4.16671 15.8361 5.39171 17.3755C6.61671 18.9149 8.28407 20.7239 10.3938 22.8023C12.5035 24.8793 15.1917 27.3994 18.4584 30.3626C19.4996 29.4234 20.5245 28.4958 21.5331 27.5798C22.5403 26.6624 23.4407 25.8246 24.2342 25.0665L24.4588 25.2911L24.9631 25.7954L25.4674 26.2996L25.692 26.5242C24.8889 27.2824 23.9947 28.1045 23.0092 28.9906C22.0224 29.8753 21.0213 30.7879 20.006 31.7284L18.4584 33.127ZM32.1988 26.6876V20.5626H26.0738V18.5209H32.1988V12.3959H34.2405V18.5209H40.3655V20.5626H34.2405V26.6876H32.1988Z" fill="#443C1C"/>
</svg>
