<svg width="77" height="77" viewBox="0 0 77 77" fill="none" xmlns="http://www.w3.org/2000/svg">
<circle cx="38.5" cy="38.5" r="38" fill="white" stroke="#9B937A"/>
<path d="M32.5921 22.2888C31.2165 22.9961 32.4017 24.9389 33.7966 24.3259C35.0228 23.7907 36.3694 23.6492 36.4827 22.086C36.5501 21.1193 36.5164 20.1762 37.6294 19.7447C37.9073 19.6483 38.2045 19.6176 38.4969 19.6551C38.7892 19.6926 39.0684 19.7972 39.3115 19.9605C39.5546 20.1237 39.7549 20.3409 39.8959 20.5944C40.0369 20.8478 40.1146 21.1303 40.1227 21.4188C40.2383 22.5057 40.207 23.3545 41.4429 23.8331C42.9042 24.3013 44.2558 25.0494 45.4188 26.0339C46.5818 27.0183 47.533 28.2195 48.2171 29.5673C48.991 31.4084 49.3318 33.3964 49.2144 35.3839V40.1466C49.2144 40.4593 49.3413 40.7592 49.5672 40.9803C49.7931 41.2013 50.0995 41.3255 50.4189 41.3255C50.7384 41.3255 51.0448 41.2013 51.2707 40.9803C51.4966 40.7592 51.6235 40.4593 51.6235 40.1466C51.6235 36.2657 52.0691 32.1443 50.3683 28.5251C48.9042 25.4849 46.2995 23.1138 43.0955 21.9045C43.0136 21.8738 42.7221 21.7418 42.5486 21.6876V21.5485C42.5332 20.7671 42.3205 20.0017 41.9295 19.3203C41.5423 18.663 40.9763 18.1237 40.2946 17.7625C39.6128 17.4012 38.8421 17.2322 38.068 17.2742C37.2939 17.3163 36.547 17.5677 35.9102 18.0005C35.2735 18.4334 34.772 19.0306 34.4615 19.7259C34.2098 20.3172 34.0844 20.9527 34.0929 21.5932V21.7159C33.5835 21.8831 33.0826 22.0743 32.5921 22.2888ZM20.4168 19.1294C19.3086 18.0448 17.5982 19.7188 18.7064 20.7798C21.26 23.2791 23.8135 25.8019 26.3671 28.3011C25.4661 30.0909 24.9963 32.059 24.994 34.0541V44.7585C23.7466 44.8986 22.5955 45.4832 21.7602 46.4007C20.9249 47.3182 20.4639 48.5045 20.465 49.7334V50.983C20.4656 52.3085 21.0039 53.5795 21.9615 54.5168C22.9192 55.4541 24.2178 55.9809 25.5721 55.9815H34.2206C34.3868 56.9267 34.8889 57.7839 35.6383 58.4019C36.3877 59.0199 37.336 59.3588 38.3159 59.3588C39.2958 59.3588 40.2442 59.0199 40.9936 58.4019C41.7429 57.7839 42.2451 56.9267 42.4113 55.9815H51.0597C52.0428 55.9808 53.0047 55.7025 53.8301 55.1799L56.2151 57.5141C56.4419 57.7361 56.7495 57.8608 57.0703 57.8608C57.3911 57.8608 57.6987 57.7361 57.9255 57.5141C58.1523 57.2921 58.2797 56.991 58.2797 56.6771C58.2797 56.3631 58.1523 56.0621 57.9255 55.8401L20.4168 19.1294ZM52.0474 53.4351C51.7327 53.5565 51.398 53.6204 51.0597 53.6237H25.5721C25.2176 53.6244 24.8665 53.5565 24.5389 53.424C24.2112 53.2915 23.9135 53.097 23.6629 52.8517C23.4122 52.6063 23.2135 52.315 23.0781 51.9943C22.9427 51.6737 22.8734 51.33 22.874 50.983V49.7334C22.8734 49.3864 22.9427 49.0428 23.0781 48.7221C23.2135 48.4014 23.4122 48.1101 23.6629 47.8647C23.9135 47.6194 24.2112 47.4249 24.5389 47.2924C24.8665 47.1599 25.2176 47.0921 25.5721 47.0927C25.8144 47.0921 26.0542 47.0445 26.2776 46.9528C26.501 46.861 26.7037 46.7269 26.8739 46.5581C27.0441 46.3894 27.1785 46.1893 27.2693 45.9694C27.3601 45.7496 27.4055 45.5143 27.403 45.2772V34.0541C27.3989 32.6954 27.669 31.3493 28.198 30.0931L52.0474 53.4351Z" fill="#443C1C"/>
</svg>
