<svg width="50" height="50" viewBox="0 0 50 50" fill="none" xmlns="http://www.w3.org/2000/svg">
<circle cx="25" cy="25" r="25" fill="#F0ECDB"/>
<path d="M12.5 26C12.5 20.1075 12.5 17.1613 14.33 15.33C16.1625 13.5 19.1075 13.5 25 13.5C30.8925 13.5 33.8387 13.5 35.6687 15.33C37.5 17.1625 37.5 20.1075 37.5 26C37.5 31.8925 37.5 34.8387 35.6687 36.6687C33.84 38.5 30.8925 38.5 25 38.5C19.1075 38.5 16.1613 38.5 14.33 36.6687C12.5 34.84 12.5 31.8925 12.5 26Z" stroke="black" stroke-width="0.75"/>
<path d="M30 23.5C31.3807 23.5 32.5 22.3807 32.5 21C32.5 19.6193 31.3807 18.5 30 18.5C28.6193 18.5 27.5 19.6193 27.5 21C27.5 22.3807 28.6193 23.5 30 23.5Z" stroke="black" stroke-width="0.75"/>
<path d="M12.5 26.625L14.69 24.7087C15.2389 24.2288 15.9497 23.9754 16.6784 23.9998C17.4071 24.0241 18.0994 24.3245 18.615 24.84L23.9775 30.2025C24.3936 30.6185 24.9432 30.8745 25.5294 30.9252C26.1157 30.976 26.7011 30.8183 27.1825 30.48L27.5563 30.2175C28.2507 29.7297 29.0902 29.492 29.9373 29.543C30.7844 29.5941 31.5892 29.931 32.22 30.4987L36.25 34.125" stroke="black" stroke-width="0.75" stroke-linecap="round"/>
</svg>
