<svg width="50" height="50" viewBox="0 0 50 50" fill="none" xmlns="http://www.w3.org/2000/svg">
<circle cx="25" cy="25" r="25" fill="#F0ECDB"/>
<path d="M13.9286 22.6786L13.4545 23.1527L12.9817 22.6786L13.4545 22.2045L13.9286 22.6786ZM36.0268 33.3928C36.0268 33.5704 35.9563 33.7408 35.8307 33.8664C35.7051 33.9919 35.5348 34.0625 35.3572 34.0625C35.1796 34.0625 35.0092 33.9919 34.8837 33.8664C34.7581 33.7408 34.6875 33.5704 34.6875 33.3928H36.0268ZM20.1509 29.8491L13.4545 23.1527L14.4027 22.2045L21.0991 28.9009L20.1509 29.8491ZM13.4545 22.2045L20.1509 15.508L21.0991 16.4562L14.4027 23.1527L13.4545 22.2045ZM13.9286 22.0089H27.3215V23.3482H13.9286V22.0089ZM36.0268 30.7143V33.3928H34.6875V30.7143H36.0268ZM27.3215 22.0089C29.6303 22.0089 31.8445 22.9261 33.4771 24.5587C35.1096 26.1912 36.0268 28.4055 36.0268 30.7143H34.6875C34.6875 28.7607 33.9115 26.8871 32.5301 25.5057C31.1486 24.1243 29.2751 23.3482 27.3215 23.3482V22.0089Z" fill="#443C1C"/>
</svg>
