<svg width="70" height="70" viewBox="0 0 70 70" fill="none" xmlns="http://www.w3.org/2000/svg">
<circle cx="35" cy="35" r="35" fill="#94C020"/>
<path d="M35.5 16.8625C32.869 16.8957 30.3501 17.9334 28.4592 19.7631C26.5683 21.5928 25.4483 24.0761 25.3285 26.7046C25.2086 29.3331 26.0981 31.908 27.8148 33.9022C29.5314 35.8963 31.9454 37.1588 34.5625 37.4312V53.2C34.5625 53.4486 34.6613 53.6871 34.8371 53.8629C35.0129 54.0387 35.2514 54.1375 35.5 54.1375C35.7486 54.1375 35.9871 54.0387 36.1629 53.8629C36.3387 53.6871 36.4375 53.4486 36.4375 53.2V37.4312C39.0546 37.1588 41.4686 35.8963 43.1852 33.9022C44.9019 31.908 45.7913 29.3331 45.6715 26.7046C45.5517 24.0761 44.4317 21.5928 42.5408 19.7631C40.6498 17.9334 38.131 16.8957 35.5 16.8625ZM35.5 35.6125C33.8312 35.6125 32.1999 35.1176 30.8124 34.1905C29.4248 33.2634 28.3434 31.9456 27.7048 30.4039C27.0661 28.8621 26.8991 27.1656 27.2246 25.5289C27.5502 23.8922 28.3538 22.3888 29.5338 21.2088C30.7138 20.0288 32.2172 19.2252 33.8539 18.8996C35.4906 18.574 37.1871 18.7411 38.7289 19.3798C40.2706 20.0184 41.5884 21.0998 42.5155 22.4874C43.4426 23.8749 43.9375 25.5062 43.9375 27.175C43.9375 28.283 43.7193 29.3802 43.2952 30.4039C42.8712 31.4276 42.2497 32.3577 41.4662 33.1412C40.6827 33.9247 39.7526 34.5462 38.7289 34.9702C37.7052 35.3942 36.608 35.6125 35.5 35.6125Z" fill="white"/>
</svg>
