<svg width="18" height="19" viewBox="0 0 18 19" fill="none" xmlns="http://www.w3.org/2000/svg">
<path d="M10.125 1.16455C10.125 0.866182 10.0065 0.580034 9.79549 0.369056C9.58452 0.158077 9.29837 0.0395508 9 0.0395508C8.70163 0.0395508 8.41548 0.158077 8.20451 0.369056C7.99353 0.580034 7.875 0.866182 7.875 1.16455V7.91455H1.125C0.826631 7.91455 0.540483 8.03308 0.329505 8.24406C0.118526 8.45504 0 8.74118 0 9.03955C0 9.33792 0.118526 9.62407 0.329505 9.83504C0.540483 10.046 0.826631 10.1646 1.125 10.1646H7.875V16.9146C7.875 17.2129 7.99353 17.4991 8.20451 17.71C8.41548 17.921 8.70163 18.0396 9 18.0396C9.29837 18.0396 9.58452 17.921 9.79549 17.71C10.0065 17.4991 10.125 17.2129 10.125 16.9146V10.1646H16.875C17.1734 10.1646 17.4595 10.046 17.6705 9.83504C17.8815 9.62407 18 9.33792 18 9.03955C18 8.74118 17.8815 8.45504 17.6705 8.24406C17.4595 8.03308 17.1734 7.91455 16.875 7.91455H10.125V1.16455Z" fill="#443C1C"/>
</svg>
