<svg width="64" height="64" viewBox="0 0 64 64" fill="none" xmlns="http://www.w3.org/2000/svg">
<path d="M56.9832 20.684C57.0562 20.1321 57.0942 19.5801 57.0942 19.0314C57.0942 11.4855 50.2968 5.43029 42.7541 6.45482C40.5559 2.54386 36.369 0 31.719 0C27.069 0 22.8821 2.54386 20.684 6.45482C13.1253 5.43029 6.3438 11.4855 6.3438 19.0314C6.3438 19.5801 6.38186 20.1321 6.45482 20.684C2.54386 22.8853 0 27.0722 0 31.719C0 36.3658 2.54386 40.5527 6.45482 42.7541C6.38164 43.3019 6.34456 43.8539 6.3438 44.4066C6.3438 51.9526 13.1253 57.9919 20.684 56.9832C22.8821 60.8941 27.069 63.438 31.719 63.438C36.369 63.438 40.5559 60.8941 42.7541 56.9832C50.2968 57.9919 57.0942 51.9526 57.0942 44.4066C57.0942 43.8579 57.0562 43.306 56.9832 42.7541C60.8941 40.5527 63.438 36.3658 63.438 31.719C63.438 27.0722 60.8941 22.8853 56.9832 20.684Z" fill="#D0EE75"/>
<path d="M24.2065 15.0248V22.0364H31.3016V50.0826H38.3966V15.0248H24.2065Z" fill="#4D4D4D"/>
</svg>
