<svg width="64" height="65" viewBox="0 0 64 65" fill="none" xmlns="http://www.w3.org/2000/svg">
<path d="M56.9832 21.6509C57.0562 21.099 57.0942 20.5471 57.0942 19.9984C57.0942 12.4524 50.2968 6.39724 42.7541 7.42177C40.5559 3.51081 36.369 0.966949 31.719 0.966949C27.069 0.966949 22.8821 3.51081 20.684 7.42177C13.1253 6.39724 6.3438 12.4524 6.3438 19.9984C6.3438 20.5471 6.38186 21.099 6.45482 21.6509C2.54386 23.8522 0 28.0391 0 32.686C0 37.3328 2.54386 41.5197 6.45482 43.721C6.38164 44.2688 6.34456 44.8209 6.3438 45.3736C6.3438 52.9195 13.1253 58.9588 20.684 57.9501C22.8821 61.8611 27.069 64.405 31.719 64.405C36.369 64.405 40.5559 61.8611 42.7541 57.9501C50.2968 58.9588 57.0942 52.9195 57.0942 45.3736C57.0942 44.8248 57.0562 44.2729 56.9832 43.721C60.8941 41.5197 63.438 37.3328 63.438 32.686C63.438 28.0391 60.8941 23.8522 56.9832 21.6509Z" fill="#94C020"/>
<path d="M22.5371 16.8264V23.3372H35.336V29.8479H28.9366C27.2393 29.8479 25.6116 30.5339 24.4115 31.7549C23.2113 32.9759 22.5371 34.6319 22.5371 36.3587V49.3802H41.7355V42.8694H28.9366V36.3587H35.336C37.0332 36.3587 38.661 35.6727 39.8611 34.4517C41.0612 33.2307 41.7355 31.5747 41.7355 29.8479V23.3372C41.7355 21.6104 41.0612 19.9544 39.8611 18.7334C38.661 17.5124 37.0332 16.8264 35.336 16.8264H22.5371Z" fill="#D0EE75"/>
</svg>
