<svg width="64" height="64" viewBox="0 0 64 64" fill="none" xmlns="http://www.w3.org/2000/svg">
<path d="M56.9832 20.9402C57.0562 20.3882 57.0942 19.8363 57.0942 19.2876C57.0942 11.7416 50.2968 5.68649 42.7541 6.71101C40.5559 2.80006 36.369 0.256195 31.719 0.256195C27.069 0.256195 22.8821 2.80006 20.684 6.71101C13.1253 5.68649 6.3438 11.7416 6.3438 19.2876C6.3438 19.8363 6.38186 20.3882 6.45482 20.9402C2.54386 23.1415 0 27.3284 0 31.9752C0 36.622 2.54386 40.8089 6.45482 43.0102C6.38164 43.5581 6.34456 44.1101 6.3438 44.6628C6.3438 52.2088 13.1253 58.2481 20.684 57.2394C22.8821 61.1503 27.069 63.6942 31.719 63.6942C36.369 63.6942 40.5559 61.1503 42.7541 57.2394C50.2968 58.2481 57.0942 52.2088 57.0942 44.6628C57.0942 44.1141 57.0562 43.5622 56.9832 43.0102C60.8941 40.8089 63.438 36.622 63.438 31.9752C63.438 27.3284 60.8941 23.1415 56.9832 20.9402Z" fill="#F9C758"/>
<path d="M40.9007 42.1587V37.2756C40.9007 35.9805 40.3951 34.7385 39.495 33.8228C38.5949 32.907 37.3741 32.3926 36.1012 32.3926C37.3741 32.3926 38.5949 31.8781 39.495 30.9623C40.3951 30.0466 40.9007 28.8046 40.9007 27.5095V22.6264C40.9007 20.8997 40.2265 19.2436 39.0264 18.0226C37.8263 16.8016 36.1985 16.1157 34.5013 16.1157H21.7024V22.6264H34.5013V29.1372H28.1018V35.6479H34.5013V42.1587H21.7024V48.6694H34.5013C36.1985 48.6694 37.8263 47.9835 39.0264 46.7625C40.2265 45.5415 40.9007 43.8854 40.9007 42.1587Z" fill="#94C020"/>
</svg>
