<svg width="77" height="77" viewBox="0 0 77 77" fill="none" xmlns="http://www.w3.org/2000/svg">
<circle cx="38.5" cy="38.5" r="38" fill="white" stroke="#9B937A"/>
<g clip-path="url(#clip0_440_2284)">
<path d="M56.4893 50.5742C55.2705 49.4877 54.2035 48.2421 53.3169 46.871C52.3491 44.9784 51.769 42.9115 51.6107 40.7917V34.5481C51.619 31.2185 50.4113 28.0005 48.2143 25.4986C46.0173 22.9967 42.9823 21.3832 39.6796 20.9613V19.3308C39.6796 18.8833 39.5018 18.4542 39.1854 18.1378C38.8689 17.8213 38.4398 17.6436 37.9923 17.6436C37.5448 17.6436 37.1156 17.8213 36.7992 18.1378C36.4828 18.4542 36.305 18.8833 36.305 19.3308V20.9865C33.0318 21.4389 30.0335 23.0622 27.8654 25.5556C25.6973 28.0491 24.5062 31.2438 24.5129 34.5481V40.7917C24.3546 42.9115 23.7745 44.9784 22.8067 46.871C21.9357 48.239 20.8858 49.4844 19.6848 50.5742C19.55 50.6926 19.442 50.8384 19.3679 51.0018C19.2938 51.1653 19.2554 51.3426 19.2551 51.5221V53.241C19.2551 53.5762 19.3883 53.8977 19.6253 54.1347C19.8623 54.3717 20.1838 54.5049 20.519 54.5049H55.6551C55.9903 54.5049 56.3118 54.3717 56.5488 54.1347C56.7859 53.8977 56.919 53.5762 56.919 53.241V51.5221C56.9188 51.3426 56.8804 51.1653 56.8063 51.0018C56.7322 50.8384 56.6241 50.6926 56.4893 50.5742ZM21.884 51.9771C23.0599 50.8411 24.0953 49.5681 24.9679 48.1854C26.1871 45.8997 26.8984 43.3776 27.0533 40.7917V34.5481C27.0032 33.0668 27.2517 31.5907 27.7839 30.2075C28.3162 28.8242 29.1213 27.5623 30.1514 26.4967C31.1815 25.4312 32.4155 24.5838 33.78 24.0051C35.1444 23.4263 36.6113 23.1281 38.0934 23.1281C39.5755 23.1281 41.0424 23.4263 42.4068 24.0051C43.7712 24.5838 45.0052 25.4312 46.0354 26.4967C47.0655 27.5623 47.8706 28.8242 48.4029 30.2075C48.9351 31.5907 49.1836 33.0668 49.1335 34.5481V40.7917C49.2884 43.3776 49.9997 45.8997 51.2189 48.1854C52.0915 49.5681 53.1268 50.8411 54.3028 51.9771H21.884Z" fill="#443C1C"/>
<path d="M38.1502 58.7263C38.9463 58.7079 39.7104 58.4086 40.3071 57.8813C40.9039 57.3539 41.2949 56.6325 41.411 55.8446H34.7629C34.8823 56.6539 35.2917 57.3922 35.9147 57.9223C36.5378 58.4524 37.3322 58.7381 38.1502 58.7263Z" fill="#443C1C"/>
</g>
<defs>
<clipPath id="clip0_440_2284">
<rect width="45.5" height="45.5" fill="white" transform="translate(15.4001 15.4001)"/>
</clipPath>
</defs>
</svg>
