<svg width="12" height="29" viewBox="0 0 12 29" fill="none" xmlns="http://www.w3.org/2000/svg">
<path d="M11.7166 13.165L1.53338 0.333699C1.36346 0.119494 1.13772 0 0.902976 0C0.668229 0 0.442492 0.119494 0.27258 0.333699L0.261615 0.348198C0.17896 0.45204 0.113143 0.577033 0.0681677 0.715575C0.0231924 0.854116 -9.53674e-07 1.00331 -9.53674e-07 1.15408C-9.53674e-07 1.30485 0.0231924 1.45404 0.0681677 1.59258C0.113143 1.73112 0.17896 1.85612 0.261615 1.95996L9.85098 14.0421L0.261615 26.1195C0.17896 26.2233 0.113143 26.3483 0.0681677 26.4869C0.0231924 26.6254 -9.53674e-07 26.7746 -9.53674e-07 26.9254C-9.53674e-07 27.0762 0.0231924 27.2253 0.0681677 27.3639C0.113143 27.5024 0.17896 27.6274 0.261615 27.7313L0.27258 27.7458C0.442492 27.96 0.668229 28.0795 0.902976 28.0795C1.13772 28.0795 1.36346 27.96 1.53338 27.7458L11.7166 14.9145C11.8062 14.8016 11.8774 14.6659 11.9262 14.5156C11.9749 14.3652 12 14.2033 12 14.0397C12 13.8761 11.9749 13.7143 11.9262 13.5639C11.8774 13.4135 11.8062 13.2778 11.7166 13.165Z" fill="#443C1C"/>
</svg>
