<svg width="77" height="78" viewBox="0 0 77 78" fill="none" xmlns="http://www.w3.org/2000/svg">
<circle cx="38.354" cy="38.784" r="37.854" fill="white" stroke="#9B937A"/>
<path d="M36.8284 19.3374V17.8189C36.8284 17.4162 36.9891 17.0299 37.2753 16.7452C37.5615 16.4604 37.9497 16.3004 38.3544 16.3004C38.7591 16.3004 39.1473 16.4604 39.4334 16.7452C39.7196 17.0299 39.8804 17.4162 39.8804 17.8189V19.3374C39.8804 19.7401 39.7196 20.1263 39.4334 20.4111C39.1473 20.6959 38.7591 20.8559 38.3544 20.8559C37.9497 20.8559 37.5615 20.6959 37.2753 20.4111C36.9891 20.1263 36.8284 19.7401 36.8284 19.3374ZM52.0886 25.4113C52.289 25.4115 52.4876 25.3723 52.6728 25.2961C52.8581 25.2199 53.0264 25.1081 53.1682 24.9672L54.6943 23.4487C54.9806 23.1638 55.1415 22.7773 55.1415 22.3744C55.1415 21.9714 54.9806 21.585 54.6943 21.3C54.4079 21.0151 54.0196 20.855 53.6146 20.855C53.2096 20.855 52.8213 21.0151 52.5349 21.3L51.0089 22.8185C50.7953 23.0309 50.6497 23.3016 50.5907 23.5963C50.5318 23.891 50.562 24.1965 50.6776 24.4741C50.7932 24.7517 50.989 24.989 51.2401 25.1558C51.4913 25.3226 51.7866 25.4116 52.0886 25.4113ZM23.5405 24.9672C23.8269 25.2521 24.2152 25.4122 24.6202 25.4122C25.0251 25.4122 25.4135 25.2521 25.6999 24.9672C25.9862 24.6822 26.1471 24.2958 26.1471 23.8928C26.1471 23.4899 25.9862 23.1034 25.6999 22.8185L24.1738 21.3C23.8875 21.0151 23.4991 20.855 23.0942 20.855C22.6892 20.855 22.3009 21.0151 22.0145 21.3C21.7282 21.585 21.5673 21.9714 21.5673 22.3744C21.5673 22.7773 21.7282 23.1638 22.0145 23.4487L23.5405 24.9672ZM58.1927 49.7071V54.2625C58.1927 55.068 57.8711 55.8405 57.2987 56.41C56.7264 56.9795 55.9501 57.2995 55.1406 57.2995H21.5682C20.7587 57.2995 19.9824 56.9795 19.41 56.41C18.8377 55.8405 18.5161 55.068 18.5161 54.2625V49.7071C18.5161 48.9016 18.8377 48.1292 19.41 47.5596C19.9824 46.9901 20.7587 46.6701 21.5682 46.6701V40.5962C21.5681 38.3919 22.0065 36.2095 22.858 34.1746C23.7096 32.1397 24.9575 30.2927 26.5298 28.7399C28.1021 27.1872 29.9678 25.9595 32.0191 25.1276C34.0705 24.2957 36.2671 23.8761 38.4822 23.8928C47.6669 23.9612 55.1406 31.5403 55.1406 40.786V46.6701C55.9501 46.6701 56.7264 46.9901 57.2987 47.5596C57.8711 48.1292 58.1927 48.9016 58.1927 49.7071ZM39.6286 32.9829C43.251 33.5884 45.9845 36.8607 45.9845 40.5962C45.9845 40.9989 46.1453 41.3851 46.4315 41.6699C46.7176 41.9547 47.1058 42.1147 47.5105 42.1147C47.9152 42.1147 48.3034 41.9547 48.5896 41.6699C48.8758 41.3851 49.0365 40.9989 49.0365 40.5962C49.0365 35.3954 45.2081 30.8342 40.1322 29.9877C39.9337 29.9527 39.7302 29.9573 39.5335 30.0011C39.3367 30.0448 39.1507 30.1269 38.986 30.2427C38.8214 30.3584 38.6814 30.5055 38.5742 30.6753C38.4669 30.8452 38.3946 31.0345 38.3614 31.2324C38.3281 31.4302 38.3345 31.6327 38.3804 31.828C38.4262 32.0234 38.5104 32.2077 38.6283 32.3705C38.7461 32.5333 38.8952 32.6712 39.0669 32.7763C39.2386 32.8814 39.4295 32.9516 39.6286 32.9829ZM55.1406 54.2625V49.7071H21.5682V54.2625H55.1406Z" fill="#443C1C"/>
</svg>
