<svg width="22" height="22" viewBox="0 0 22 22" fill="none" xmlns="http://www.w3.org/2000/svg">
<path d="M18.0667 8.93733L20.636 9.35733C20.7377 9.37409 20.8302 9.42648 20.8969 9.50512C20.9636 9.58377 21.0001 9.68356 21 9.78667V12.1773C21 12.2796 20.9638 12.3786 20.898 12.4569C20.8321 12.5352 20.7408 12.5878 20.64 12.6053L18.0667 13.0573C17.9187 13.5733 17.7133 14.0707 17.4547 14.5387L18.976 16.6507C19.0367 16.7345 19.0654 16.8372 19.0571 16.9404C19.0488 17.0435 19.004 17.1403 18.9307 17.2133L17.24 18.904C17.1678 18.9765 17.0723 19.0212 16.9703 19.0303C16.8684 19.0393 16.7665 19.012 16.6827 18.9533L14.5493 17.456C14.077 17.7185 13.5771 17.9277 13.0587 18.08L12.6053 20.6413C12.5874 20.7421 12.5346 20.8333 12.456 20.8989C12.3775 20.9645 12.2783 21.0003 12.176 21H9.78667C9.68391 21.0001 9.58446 20.9637 9.50606 20.8973C9.42766 20.8308 9.37542 20.7387 9.35867 20.6373L8.93333 18.0893C8.41285 17.9386 7.91067 17.7307 7.436 17.4693L5.31867 18.9533C5.23483 19.012 5.13296 19.0393 5.03101 19.0303C4.92905 19.0212 4.83356 18.9765 4.76133 18.904L3.06933 17.2133C2.99677 17.1405 2.95229 17.0443 2.94375 16.9419C2.93521 16.8394 2.96316 16.7372 3.02267 16.6533L4.52 14.56C4.25577 14.0831 4.04558 13.5782 3.89333 13.0547L1.35867 12.6053C1.25813 12.5875 1.1671 12.5348 1.10151 12.4565C1.03593 12.3783 0.999993 12.2794 1 12.1773V9.78667C1 9.57333 1.15333 9.392 1.364 9.35733L3.89867 8.93467C4.052 8.41067 4.26133 7.908 4.52533 7.43067L3.04533 5.316C2.98698 5.23228 2.95994 5.13069 2.96896 5.02903C2.97798 4.92738 3.02248 4.83214 3.09467 4.76L4.78667 3.07067C4.85938 2.99786 4.95557 2.95322 5.05811 2.94467C5.16065 2.93613 5.2629 2.96424 5.34667 3.024L7.44667 4.524C7.92059 4.26473 8.4219 4.05902 8.94133 3.91067L9.35733 1.364C9.3741 1.26226 9.42648 1.1698 9.50512 1.10312C9.58377 1.03644 9.68356 0.999894 9.78667 1H12.1773C12.3893 1 12.5693 1.152 12.6067 1.36L13.0547 3.92C13.5733 4.06933 14.0733 4.27733 14.548 4.54L16.652 3.02667C16.7357 2.96584 16.8383 2.93686 16.9414 2.94493C17.0446 2.95299 17.1415 2.99758 17.2147 3.07067L18.9053 4.76133C18.9777 4.83372 19.0221 4.9293 19.0309 5.03125C19.0397 5.1332 19.0122 5.23498 18.9533 5.31867L17.4533 7.456C17.7107 7.92533 17.9173 8.42133 18.0667 8.936V8.93733ZM7.95467 11C7.95467 11.8073 8.27537 12.5816 8.84623 13.1524C9.41709 13.7233 10.1913 14.044 10.9987 14.044C11.806 14.044 12.5802 13.7233 13.1511 13.1524C13.722 12.5816 14.0427 11.8073 14.0427 11C14.0427 10.1927 13.722 9.41843 13.1511 8.84757C12.5802 8.27671 11.806 7.956 10.9987 7.956C10.1913 7.956 9.41709 8.27671 8.84623 8.84757C8.27537 9.41843 7.95467 10.1927 7.95467 11Z" stroke="#443C1C" stroke-width="0.5"/>
</svg>
