<svg width="78" height="78" viewBox="0 0 78 78" fill="none" xmlns="http://www.w3.org/2000/svg">
<circle cx="38.9727" cy="38.9727" r="38.9727" fill="white"/>
<path d="M30.7943 52.5238H35.2753C35.574 52.5238 35.8354 52.4136 36.0595 52.1934C36.2835 51.9731 36.3955 51.7162 36.3955 51.4225C36.3955 51.1288 36.2835 50.8719 36.0595 50.6516C35.8354 50.4314 35.574 50.3213 35.2753 50.3213H31.9146V48.1188H35.2753C35.574 48.1188 35.8354 48.0087 36.0595 47.7884C36.2835 47.5682 36.3955 47.3112 36.3955 47.0176V42.6126C36.3955 42.3189 36.2835 42.062 36.0595 41.8417C35.8354 41.6215 35.574 41.5114 35.2753 41.5114H30.7943C30.4956 41.5114 30.2342 41.6215 30.0101 41.8417C29.7861 42.062 29.6741 42.3189 29.6741 42.6126C29.6741 42.9063 29.7861 43.1632 30.0101 43.3835C30.2342 43.6037 30.4956 43.7138 30.7943 43.7138H34.155V45.9163H30.7943C30.4956 45.9163 30.2342 46.0264 30.0101 46.2467C29.7861 46.4669 29.6741 46.7239 29.6741 47.0176V51.4225C29.6741 51.7162 29.7861 51.9731 30.0101 52.1934C30.2342 52.4136 30.4956 52.5238 30.7943 52.5238ZM46.4778 52.5238C46.7765 52.5238 47.0379 52.4136 47.2619 52.1934C47.486 51.9731 47.598 51.7162 47.598 51.4225V42.6126C47.598 42.3189 47.486 42.062 47.2619 41.8417C47.0379 41.6215 46.7765 41.5114 46.4778 41.5114C46.179 41.5114 45.9176 41.6215 45.6936 41.8417C45.4695 42.062 45.3575 42.3189 45.3575 42.6126V45.9163H43.117V42.6126C43.117 42.3189 43.005 42.062 42.7809 41.8417C42.5569 41.6215 42.2955 41.5114 41.9968 41.5114C41.698 41.5114 41.4366 41.6215 41.2126 41.8417C40.9886 42.062 40.8765 42.3189 40.8765 42.6126V47.0176C40.8765 47.3112 40.9886 47.5682 41.2126 47.7884C41.4366 48.0087 41.698 48.1188 41.9968 48.1188H45.3575V51.4225C45.3575 51.7162 45.4695 51.9731 45.6936 52.1934C45.9176 52.4136 46.179 52.5238 46.4778 52.5238ZM58.8005 37.2165V54.7262C58.8005 55.9376 58.3621 56.975 57.4853 57.8383C56.607 58.7002 55.5517 59.1312 54.3195 59.1312H22.9526C21.7203 59.1312 20.6658 58.7002 19.789 57.8383C18.9107 56.975 18.4716 55.9376 18.4716 54.7262V37.2165C17.6128 36.4457 16.9503 35.4545 16.4843 34.2432C16.0168 33.0318 16.0071 31.7103 16.4552 30.2787L18.8077 22.7903C19.1064 21.8359 19.6389 21.0467 20.4052 20.4226C21.1699 19.7986 22.0564 19.4866 23.0646 19.4866H54.2074C55.2157 19.4866 56.0932 19.789 56.84 20.394C57.5869 21.0004 58.1283 21.7992 58.4644 22.7903L60.8169 30.2787C61.265 31.7103 61.256 33.0135 60.79 34.1881C60.3225 35.3628 59.6593 36.3722 58.8005 37.2165ZM43.5651 34.9039C44.5733 34.9039 45.3388 34.564 45.8616 33.8842C46.3844 33.2058 46.5898 32.4445 46.4778 31.6002L45.2455 23.8915H40.8765V32.0407C40.8765 32.8116 41.1379 33.4819 41.6607 34.0516C42.1835 34.6198 42.8183 34.9039 43.5651 34.9039ZM33.4829 34.9039C34.3418 34.9039 35.0423 34.6198 35.5845 34.0516C36.1252 33.4819 36.3955 32.8116 36.3955 32.0407V23.8915H32.0266L30.7943 31.6002C30.6449 32.4812 30.8414 33.2521 31.3836 33.9128C31.9243 34.5736 32.624 34.9039 33.4829 34.9039ZM23.5127 34.9039C24.1849 34.9039 24.7726 34.6653 25.276 34.1881C25.7808 33.7109 26.0893 33.1052 26.2013 32.3711L27.4336 23.8915H23.0646L20.8241 31.2698C20.6001 32.004 20.7211 32.7932 21.1871 33.6375C21.6546 34.4818 22.4298 34.9039 23.5127 34.9039ZM53.7593 34.9039C54.8423 34.9039 55.6264 34.4818 56.1119 33.6375C56.5973 32.7932 56.7093 32.004 56.4479 31.2698L54.0954 23.8915H49.8385L51.0708 32.3711C51.1828 33.1052 51.4912 33.7109 51.9961 34.1881C52.4994 34.6653 53.0872 34.9039 53.7593 34.9039Z" fill="#443C1C"/>
<path fill-rule="evenodd" clip-rule="evenodd" d="M57.4751 63.3768C51.5794 67.85 44.2633 70.0368 36.8799 69.5327C29.4966 69.0286 22.5456 65.8678 17.3126 60.6348C12.0796 55.4018 8.91877 48.4508 8.41469 41.0674C7.9106 33.6841 10.0974 26.368 14.5706 20.4723L57.4751 63.3768ZM63.3768 57.4751L20.4723 14.5706C26.368 10.0974 33.6841 7.9106 41.0674 8.41469C48.4508 8.91877 55.4018 12.0796 60.6348 17.3126C65.8678 22.5456 69.0286 29.4966 69.5327 36.8799C70.0368 44.2633 67.85 51.5794 63.3768 57.4751ZM77.9474 38.9737C77.9474 49.3102 73.8412 59.2233 66.5322 66.5322C59.2233 73.8412 49.3102 77.9474 38.9737 77.9474C28.6372 77.9474 18.7241 73.8412 11.4151 66.5322C4.10614 59.2233 0 49.3102 0 38.9737C0 28.6372 4.10614 18.7241 11.4151 11.4151C18.7241 4.10614 28.6372 0 38.9737 0C49.3102 0 59.2233 4.10614 66.5322 11.4151C73.8412 18.7241 77.9474 28.6372 77.9474 38.9737Z" fill="#443C1C"/>
</svg>
