<svg width="77" height="78" viewBox="0 0 77 78" fill="none" xmlns="http://www.w3.org/2000/svg">
<circle cx="38.354" cy="38.784" r="37.854" fill="white" stroke="#9B937A"/>
<path d="M30.3056 52.1192H34.7155C35.0094 52.1192 35.2667 52.0108 35.4872 51.794C35.7077 51.5773 35.8179 51.3244 35.8179 51.0354C35.8179 50.7464 35.7077 50.4935 35.4872 50.2768C35.2667 50.06 35.0094 49.9517 34.7155 49.9517H31.4081V47.7841H34.7155C35.0094 47.7841 35.2667 47.6758 35.4872 47.459C35.7077 47.2423 35.8179 46.9894 35.8179 46.7004V42.3654C35.8179 42.0764 35.7077 41.8235 35.4872 41.6067C35.2667 41.39 35.0094 41.2816 34.7155 41.2816H30.3056C30.0116 41.2816 29.7544 41.39 29.5339 41.6067C29.3134 41.8235 29.2031 42.0764 29.2031 42.3654C29.2031 42.6544 29.3134 42.9072 29.5339 43.124C29.7544 43.3407 30.0116 43.4491 30.3056 43.4491H33.613V45.6166H30.3056C30.0116 45.6166 29.7544 45.725 29.5339 45.9418C29.3134 46.1585 29.2031 46.4114 29.2031 46.7004V51.0354C29.2031 51.3244 29.3134 51.5773 29.5339 51.794C29.7544 52.0108 30.0116 52.1192 30.3056 52.1192ZM45.7401 52.1192C46.0341 52.1192 46.2913 52.0108 46.5118 51.794C46.7323 51.5773 46.8425 51.3244 46.8425 51.0354V42.3654C46.8425 42.0764 46.7323 41.8235 46.5118 41.6067C46.2913 41.39 46.0341 41.2816 45.7401 41.2816C45.4461 41.2816 45.1888 41.39 44.9683 41.6067C44.7479 41.8235 44.6376 42.0764 44.6376 42.3654V45.6166H42.4327V42.3654C42.4327 42.0764 42.3224 41.8235 42.1019 41.6067C41.8815 41.39 41.6242 41.2816 41.3302 41.2816C41.0362 41.2816 40.779 41.39 40.5585 41.6067C40.338 41.8235 40.2278 42.0764 40.2278 42.3654V46.7004C40.2278 46.9894 40.338 47.2423 40.5585 47.459C40.779 47.6758 41.0362 47.7841 41.3302 47.7841H44.6376V51.0354C44.6376 51.3244 44.7479 51.5773 44.9683 51.794C45.1888 52.0108 45.4461 52.1192 45.7401 52.1192ZM57.8672 37.0549V54.2867C57.8672 55.4788 57.4357 56.4997 56.5729 57.3494C55.7085 58.1976 54.67 58.6217 53.4573 58.6217H22.5884C21.3757 58.6217 20.3379 58.1976 19.475 57.3494C18.6107 56.4997 18.1785 55.4788 18.1785 54.2867V37.0549C17.3333 36.2963 16.6814 35.3209 16.2227 34.1288C15.7627 32.9367 15.7531 31.6362 16.1941 30.2273L18.5093 22.8577C18.8032 21.9185 19.3273 21.1418 20.0814 20.5276C20.834 19.9135 21.7064 19.6064 22.6986 19.6064H53.3471C54.3393 19.6064 55.2029 19.9041 55.9378 20.4995C56.6728 21.0963 57.2057 21.8823 57.5364 22.8577L59.8516 30.2273C60.2926 31.6362 60.2838 32.9186 59.8251 34.0746C59.365 35.2306 58.7124 36.2241 57.8672 37.0549ZM42.8737 34.7791C43.8659 34.7791 44.6192 34.4445 45.1337 33.7755C45.6482 33.1079 45.8503 32.3587 45.7401 31.5278L44.5274 23.9415H40.2278V31.9613C40.2278 32.7199 40.485 33.3796 40.9995 33.9402C41.514 34.4994 42.1387 34.7791 42.8737 34.7791ZM32.9515 34.7791C33.7967 34.7791 34.4861 34.4994 35.0197 33.9402C35.5519 33.3796 35.8179 32.7199 35.8179 31.9613V23.9415H31.5183L30.3056 31.5278C30.1586 32.3948 30.3519 33.1534 30.8855 33.8037C31.4176 34.4539 32.1063 34.7791 32.9515 34.7791ZM23.1396 34.7791C23.8011 34.7791 24.3795 34.5442 24.8749 34.0746C25.3717 33.605 25.6753 33.0089 25.7855 32.2864L26.9982 23.9415H22.6986L20.4937 31.2027C20.2732 31.9252 20.3923 32.7018 20.8509 33.5327C21.311 34.3636 22.0739 34.7791 23.1396 34.7791ZM52.9061 34.7791C53.9718 34.7791 54.7435 34.3636 55.2212 33.5327C55.699 32.7018 55.8092 31.9252 55.552 31.2027L53.2368 23.9415H49.0475L50.2602 32.2864C50.3704 33.0089 50.674 33.605 51.1708 34.0746C51.6662 34.5442 52.2446 34.7791 52.9061 34.7791Z" fill="#443C1C"/>
</svg>
