<svg width="19" height="36" viewBox="0 0 19 36" fill="none" xmlns="http://www.w3.org/2000/svg">
<g clip-path="url(#clip0_86_1853)">
<path d="M9.98747 8.66665C9.63385 8.66607 9.29448 8.806 9.04402 9.05564C8.79357 9.30528 8.65254 9.64419 8.65196 9.99781C8.65139 10.3514 8.79131 10.6908 9.04095 10.9413C9.29059 11.1917 9.6295 11.3327 9.98312 11.3333C10.3367 11.3339 10.6761 11.194 10.9266 10.9443C11.177 10.6947 11.3181 10.3558 11.3186 10.0022C11.3192 9.64853 11.1793 9.30917 10.9296 9.05871C10.68 8.80825 10.3411 8.66723 9.98747 8.66665Z" fill="#A9A9A9" stroke="#A9A9A9" stroke-linecap="round" stroke-linejoin="round"/>
<path d="M9.97477 16.6667C9.62115 16.6661 9.28179 16.806 9.03133 17.0556C8.78087 17.3053 8.63985 17.6442 8.63927 17.9978C8.63869 18.3514 8.77862 18.6908 9.02826 18.9413C9.2779 19.1917 9.61681 19.3327 9.97043 19.3333C10.324 19.3339 10.6634 19.194 10.9139 18.9443C11.1643 18.6947 11.3054 18.3558 11.3059 18.0022C11.3065 17.6485 11.1666 17.3092 10.9169 17.0587C10.6673 16.8083 10.3284 16.6672 9.97477 16.6667Z" fill="#A9A9A9" stroke="#A9A9A9" stroke-linecap="round" stroke-linejoin="round"/>
<path d="M9.96159 24.6667C9.60797 24.6661 9.2686 24.806 9.01815 25.0556C8.76769 25.3053 8.62666 25.6442 8.62609 25.9978C8.62551 26.3514 8.76543 26.6908 9.01507 26.9413C9.26471 27.1917 9.60362 27.3327 9.95724 27.3333C10.3109 27.3339 10.6502 27.194 10.9007 26.9443C11.1511 26.6947 11.2922 26.3558 11.2927 26.0022C11.2933 25.6485 11.1534 25.3092 10.9038 25.0587C10.6541 24.8083 10.3152 24.6672 9.96159 24.6667Z" fill="#A9A9A9" stroke="#A9A9A9" stroke-linecap="round" stroke-linejoin="round"/>
</g>
<defs>
<clipPath id="clip0_86_1853">
<rect width="34" height="18" fill="white" transform="translate(19 1.01465) rotate(90.0934)"/>
</clipPath>
</defs>
</svg>
