<svg width="78" height="79" viewBox="0 0 78 79" fill="none" xmlns="http://www.w3.org/2000/svg">
<circle cx="38.882" cy="39.312" r="38.382" fill="white" stroke="#9B937A"/>
<path d="M38.8821 60.1944C27.367 60.1944 17.9998 50.8272 17.9998 39.3121C17.9998 27.797 27.367 18.4298 38.8821 18.4298C50.3972 18.4298 59.7644 27.797 59.7644 39.3121C59.7644 50.8272 50.3972 60.1944 38.8821 60.1944ZM38.8821 21.413C29.0077 21.413 20.9829 29.4378 20.9829 39.3121C20.9829 49.1865 29.0077 57.2112 38.8821 57.2112C48.7564 57.2112 56.7812 49.1865 56.7812 39.3121C56.7812 29.4378 48.7564 21.413 38.8821 21.413Z" fill="#443C1C"/>
<path d="M44.8486 46.7701C44.5801 46.7701 44.3116 46.7104 44.073 46.5613L36.615 42.0865C36.3941 41.9538 36.2118 41.7655 36.0862 41.5405C35.9606 41.3154 35.896 41.0614 35.899 40.8037V28.871C35.899 28.0357 36.5553 27.3794 37.3906 27.3794C38.2259 27.3794 38.8822 28.0357 38.8822 28.871V39.9684L45.6242 43.9957C45.9019 44.1659 46.1165 44.422 46.2356 44.7252C46.3546 45.0284 46.3716 45.3621 46.2839 45.6758C46.1962 45.9894 46.0086 46.266 45.7496 46.4635C45.4906 46.6609 45.1743 46.7686 44.8486 46.7701Z" fill="#443C1C"/>
</svg>
