<svg width="77" height="78" viewBox="0 0 77 78" fill="none" xmlns="http://www.w3.org/2000/svg">
<circle cx="38.354" cy="38.784" r="37.854" fill="white" stroke="#9B937A"/>
<path d="M29.6776 37.713C29.6776 38.2675 29.5145 38.8096 29.2088 39.2707C28.9031 39.7318 28.4687 40.0911 27.9603 40.3034C27.452 40.5156 26.8926 40.5711 26.353 40.4629C25.8134 40.3547 25.3177 40.0877 24.9286 39.6956C24.5396 39.3034 24.2746 38.8039 24.1673 38.26C24.0599 37.7161 24.115 37.1523 24.3256 36.64C24.5361 36.1277 24.8927 35.6898 25.3502 35.3817C25.8077 35.0736 26.3455 34.9092 26.8957 34.9092C27.6335 34.9092 28.3411 35.2046 28.8628 35.7304C29.3846 36.2562 29.6776 36.9694 29.6776 37.713ZM58.1923 37.713V53.1339C58.1923 54.0634 57.8259 54.9549 57.1738 55.6122C56.5217 56.2694 55.6372 56.6387 54.7149 56.6387H35.2415C34.3192 56.6387 33.4347 56.2694 32.7826 55.6122C32.1305 54.9549 31.7641 54.0634 31.7641 53.1339V51.4499C30.3731 52.9709 28.7144 53.8349 26.8957 53.8349C21.7405 53.8349 17.8545 46.9042 17.8545 37.713C17.8545 28.5217 21.7405 21.5911 26.8957 21.5911H49.1511C54.3063 21.5911 58.1923 28.5217 58.1923 37.713ZM31.7641 37.713C31.7641 34.3379 31.1016 31.0679 29.9471 28.7408C29.0326 26.8973 27.892 25.7968 26.8957 25.7968C25.8995 25.7968 24.7589 26.8973 23.8443 28.7408C22.6898 31.0679 22.0274 34.3379 22.0274 37.713C22.0274 41.0881 22.6898 44.358 23.8443 46.6852C24.7589 48.5287 25.8995 49.6292 26.8957 49.6292C27.892 49.6292 29.0326 48.5287 29.9471 46.6852C31.1016 44.358 31.7641 41.0881 31.7641 37.713ZM54.0194 52.433V39.8158H52.6285C52.0751 39.8158 51.5444 39.5943 51.1531 39.1999C50.7619 38.8055 50.542 38.2707 50.542 37.713C50.542 37.1553 50.7619 36.6204 51.1531 36.226C51.5444 35.8317 52.0751 35.6101 52.6285 35.6101H53.9325C53.7186 33.0078 53.1153 30.579 52.2025 28.7408C51.2897 26.9025 50.1474 25.7968 49.1511 25.7968H33.1098C34.6069 28.2694 35.6049 31.6778 35.8674 35.6101H37.3279C37.8813 35.6101 38.412 35.8317 38.8033 36.226C39.1945 36.6204 39.4144 37.1553 39.4144 37.713C39.4144 38.2707 39.1945 38.8055 38.8033 39.1999C38.412 39.5943 37.8813 39.8158 37.3279 39.8158H35.937V52.433H54.0194ZM45.6737 35.6101H44.2827C43.7294 35.6101 43.1987 35.8317 42.8074 36.226C42.4161 36.6204 42.1963 37.1553 42.1963 37.713C42.1963 38.2707 42.4161 38.8055 42.8074 39.1999C43.1987 39.5943 43.7294 39.8158 44.2827 39.8158H45.6737C46.227 39.8158 46.7577 39.5943 47.149 39.1999C47.5403 38.8055 47.7601 38.2707 47.7601 37.713C47.7601 37.1553 47.5403 36.6204 47.149 36.226C46.7577 35.8317 46.227 35.6101 45.6737 35.6101Z" fill="#443C1C"/>
</svg>
