<svg width="78" height="78" viewBox="0 0 78 78" fill="none" xmlns="http://www.w3.org/2000/svg">
<circle cx="38.9727" cy="38.9727" r="38.9727" fill="white"/>
<path d="M30.1567 37.8849C30.1567 38.4484 29.9909 38.9992 29.6803 39.4677C29.3697 39.9363 28.9282 40.3014 28.4117 40.5171C27.8951 40.7327 27.3268 40.7891 26.7784 40.6792C26.2301 40.5693 25.7264 40.2979 25.3311 39.8995C24.9357 39.501 24.6665 38.9934 24.5574 38.4407C24.4484 37.8881 24.5043 37.3152 24.7183 36.7946C24.9322 36.274 25.2946 35.8291 25.7594 35.516C26.2243 35.2029 26.7708 35.0359 27.3299 35.0359C28.0796 35.0359 28.7986 35.336 29.3287 35.8703C29.8589 36.4046 30.1567 37.1293 30.1567 37.8849ZM59.1313 37.8849V53.5546C59.1313 54.4991 58.759 55.4049 58.0964 56.0728C57.4337 56.7407 56.535 57.1159 55.5978 57.1159H35.8103C34.8731 57.1159 33.9744 56.7407 33.3117 56.0728C32.6491 55.4049 32.2768 54.4991 32.2768 53.5546V51.8434C30.8634 53.389 29.1779 54.2669 27.3299 54.2669C22.0915 54.2669 18.1428 47.2244 18.1428 37.8849C18.1428 28.5454 22.0915 21.5029 27.3299 21.5029H49.9442C55.1826 21.5029 59.1313 28.5454 59.1313 37.8849ZM32.2768 37.8849C32.2768 34.4554 31.6037 31.1327 30.4305 28.768C29.5012 26.8947 28.3422 25.7765 27.3299 25.7765C26.3176 25.7765 25.1586 26.8947 24.2293 28.768C23.0561 31.1327 22.383 34.4554 22.383 37.8849C22.383 41.3144 23.0561 44.6371 24.2293 47.0018C25.1586 48.8751 26.3176 49.9933 27.3299 49.9933C28.3422 49.9933 29.5012 48.8751 30.4305 47.0018C31.6037 44.6371 32.2768 41.3144 32.2768 37.8849ZM54.8911 52.8423V40.0217H53.4777C52.9155 40.0217 52.3762 39.7965 51.9786 39.3958C51.581 38.9951 51.3576 38.4516 51.3576 37.8849C51.3576 37.3182 51.581 36.7747 51.9786 36.374C52.3762 35.9732 52.9155 35.7481 53.4777 35.7481H54.8028C54.5855 33.1039 53.9724 30.6359 53.0449 28.768C52.1173 26.9001 50.9566 25.7765 49.9442 25.7765H33.6442C35.1654 28.289 36.1795 31.7523 36.4463 35.7481H37.9304C38.4927 35.7481 39.0319 35.9732 39.4295 36.374C39.8271 36.7747 40.0505 37.3182 40.0505 37.8849C40.0505 38.4516 39.8271 38.9951 39.4295 39.3958C39.0319 39.7965 38.4927 40.0217 37.9304 40.0217H36.517V52.8423H54.8911ZM46.4108 35.7481H44.9974C44.4351 35.7481 43.8958 35.9732 43.4982 36.374C43.1006 36.7747 42.8773 37.3182 42.8773 37.8849C42.8773 38.4516 43.1006 38.9951 43.4982 39.3958C43.8958 39.7965 44.4351 40.0217 44.9974 40.0217H46.4108C46.973 40.0217 47.5123 39.7965 47.9099 39.3958C48.3075 38.9951 48.5308 38.4516 48.5308 37.8849C48.5308 37.3182 48.3075 36.7747 47.9099 36.374C47.5123 35.9732 46.973 35.7481 46.4108 35.7481Z" fill="#443C1C"/>
<path fill-rule="evenodd" clip-rule="evenodd" d="M57.4751 63.3768C51.5794 67.85 44.2633 70.0368 36.8799 69.5327C29.4966 69.0286 22.5456 65.8678 17.3126 60.6348C12.0796 55.4018 8.91877 48.4508 8.41469 41.0674C7.9106 33.6841 10.0974 26.368 14.5706 20.4723L57.4751 63.3768ZM63.3768 57.4751L20.4723 14.5706C26.368 10.0974 33.6841 7.9106 41.0674 8.41469C48.4508 8.91877 55.4018 12.0796 60.6348 17.3126C65.8678 22.5456 69.0286 29.4966 69.5327 36.8799C70.0368 44.2633 67.85 51.5794 63.3768 57.4751ZM77.9474 38.9737C77.9474 49.3102 73.8412 59.2233 66.5322 66.5322C59.2233 73.8412 49.3102 77.9474 38.9737 77.9474C28.6372 77.9474 18.7241 73.8412 11.4151 66.5322C4.10614 59.2233 0 49.3102 0 38.9737C0 28.6372 4.10614 18.7241 11.4151 11.4151C18.7241 4.10614 28.6372 0 38.9737 0C49.3102 0 59.2233 4.10614 66.5322 11.4151C73.8412 18.7241 77.9474 28.6372 77.9474 38.9737Z" fill="#443C1C"/>
</svg>
