<svg width="25" height="31" viewBox="0 0 25 31" fill="none" xmlns="http://www.w3.org/2000/svg">
<path fill-rule="evenodd" clip-rule="evenodd" d="M11.803 30.4561L11.9091 30.5167L11.9515 30.5409C12.1197 30.6319 12.308 30.6795 12.4992 30.6795C12.6905 30.6795 12.8787 30.6319 13.047 30.5409L13.0894 30.5182L13.197 30.4561C13.7896 30.1047 14.3678 29.7296 14.9303 29.3318C16.3865 28.3038 17.747 27.1466 18.9955 25.8742C21.9409 22.8591 25 18.3288 25 12.5C25 9.18479 23.683 6.00537 21.3388 3.66116C18.9946 1.31696 15.8152 0 12.5 0C9.18479 0 6.00537 1.31696 3.66116 3.66116C1.31696 6.00537 0 9.18479 0 12.5C0 18.3273 3.06061 22.8591 6.00455 25.8742C7.25249 27.1465 8.61254 28.3037 10.0682 29.3318C10.6312 29.7297 11.2099 30.1047 11.803 30.4561ZM12.5 17.0455C13.7055 17.0455 14.8617 16.5666 15.7141 15.7141C16.5666 14.8617 17.0455 13.7055 17.0455 12.5C17.0455 11.2945 16.5666 10.1383 15.7141 9.28588C14.8617 8.43344 13.7055 7.95455 12.5 7.95455C11.2945 7.95455 10.1383 8.43344 9.28588 9.28588C8.43344 10.1383 7.95455 11.2945 7.95455 12.5C7.95455 13.7055 8.43344 14.8617 9.28588 15.7141C10.1383 16.5666 11.2945 17.0455 12.5 17.0455Z" fill="#443C1C"/>
</svg>
