<svg width="29" height="17" viewBox="0 0 29 17" fill="none" xmlns="http://www.w3.org/2000/svg">
<path d="M13.165 0.444562L0.333699 13.9742C0.119494 14.1999 0 14.4998 0 14.8117C0 15.1236 0.119494 15.4235 0.333699 15.6493L0.348198 15.6639C0.45204 15.7737 0.577033 15.8611 0.715575 15.9209C0.854116 15.9806 1.00331 16.0114 1.15408 16.0114C1.30485 16.0114 1.45404 15.9806 1.59258 15.9209C1.73112 15.8611 1.85612 15.7737 1.95996 15.6639L14.0421 2.92325L26.1195 15.6639C26.2233 15.7737 26.3483 15.8611 26.4869 15.9209C26.6254 15.9806 26.7746 16.0114 26.9254 16.0114C27.0762 16.0114 27.2253 15.9806 27.3639 15.9209C27.5024 15.8611 27.6274 15.7737 27.7313 15.6639L27.7458 15.6493C27.96 15.4235 28.0795 15.1236 28.0795 14.8117C28.0795 14.4998 27.96 14.1999 27.7458 13.9742L14.9145 0.444562C14.8016 0.325574 14.6659 0.230847 14.5156 0.166123C14.3652 0.101398 14.2033 0.0680237 14.0397 0.0680237C13.8761 0.0680237 13.7143 0.101398 13.5639 0.166123C13.4135 0.230847 13.2778 0.325574 13.165 0.444562Z" fill="#443C1C"/>
</svg>
