<svg width="77" height="77" viewBox="0 0 77 77" fill="none" xmlns="http://www.w3.org/2000/svg">
<circle cx="38.499" cy="38.499" r="38.499" fill="white"/>
<path d="M26.2052 39.1451C27.8443 38.3435 29.5445 37.7424 31.3057 37.3417C33.0668 36.9409 34.8542 36.7405 36.6676 36.7405C37.7139 36.7405 38.7514 36.8102 39.7802 36.9496C40.809 37.089 41.8291 37.2981 42.8405 37.5769C44.5842 38.0648 45.9182 38.3958 46.8423 38.5701C47.7665 38.7443 48.7517 38.8314 49.798 38.8314H50.7919L52.6228 22.1043H24.322L26.2052 39.1451ZM28.0362 59.7404C26.955 59.7404 26.0134 59.3919 25.2113 58.6949C24.4092 57.9979 23.9558 57.1093 23.8512 56.029L19.9278 20.2225C19.858 19.5952 20.0324 19.0551 20.4509 18.602C20.8694 18.149 21.3925 17.9225 22.0203 17.9225H54.9769C55.6046 17.9225 56.1277 18.149 56.5462 18.602C56.9647 19.0551 57.1391 19.5952 57.0693 20.2225L53.1459 56.029C53.0413 57.1093 52.5879 57.9979 51.7858 58.6949C50.9837 59.3919 50.0421 59.7404 48.961 59.7404H28.0362Z" fill="#443C1C"/>
<path fill-rule="evenodd" clip-rule="evenodd" d="M56.7765 62.6065C50.9525 67.0253 43.7253 69.1855 36.4317 68.6876C29.1381 68.1896 22.2716 65.0672 17.1022 59.8978C11.9328 54.7284 8.81037 47.8619 8.31241 40.5683C7.81446 33.2747 9.97468 26.0475 14.3935 20.2235L56.7765 62.6065ZM62.6065 56.7765L20.2235 14.3935C26.0475 9.97468 33.2747 7.81446 40.5683 8.31241C47.8619 8.81037 54.7284 11.9328 59.8978 17.1022C65.0672 22.2716 68.1896 29.1381 68.6876 36.4317C69.1855 43.7253 67.0253 50.9525 62.6065 56.7765ZM77 38.5C77 48.7108 72.9438 58.5035 65.7236 65.7236C58.5035 72.9438 48.7108 77 38.5 77C28.2892 77 18.4965 72.9438 11.2764 65.7236C4.05624 58.5035 0 48.7108 0 38.5C0 28.2892 4.05624 18.4965 11.2764 11.2764C18.4965 4.05624 28.2892 0 38.5 0C48.7108 0 58.5035 4.05624 65.7236 11.2764C72.9438 18.4965 77 28.2892 77 38.5Z" fill="#443C1C"/>
</svg>
