<svg width="77" height="78" viewBox="0 0 77 78" fill="none" xmlns="http://www.w3.org/2000/svg">
<circle cx="38.354" cy="38.784" r="37.854" fill="white" stroke="#9B937A"/>
<path d="M25.6099 39.4824L25.6879 40.1888L26.3265 39.8766C27.9251 39.0949 29.5824 38.509 31.299 38.1184C33.017 37.7274 34.7604 37.532 36.5298 37.532C37.5499 37.532 38.561 37.5999 39.5635 37.7357C40.5659 37.8715 41.56 38.0753 42.546 38.347C44.2862 38.8339 45.6314 39.1683 46.5736 39.3459C47.528 39.5259 48.5407 39.615 49.6107 39.615H50.6009H51.0491L51.0979 39.1694L52.9219 22.5052L52.9826 21.9508H52.4249H24.2307H23.6724L23.7337 22.5057L25.6099 39.4824ZM24.2594 56.1996L24.2587 56.1933L20.3501 20.5217L20.35 20.5209C20.2961 20.0362 20.4255 19.6431 20.7414 19.3011C21.0618 18.9542 21.4489 18.7848 21.9376 18.7848H54.7701C55.2588 18.7848 55.6459 18.9542 55.9663 19.3011C56.2822 19.6431 56.4116 20.0362 56.3577 20.5209L56.3577 20.5217L52.449 56.1933L52.449 56.1933L52.4484 56.1996C52.3562 57.1514 51.9633 57.9178 51.2631 58.5262C50.5567 59.14 49.7357 59.4452 48.7769 59.4452H27.9309C26.972 59.4452 26.151 59.14 25.4446 58.5262C24.7444 57.9178 24.3515 57.1514 24.2594 56.1996ZM19.853 20.5761L19.8531 20.5761L19.853 20.5761Z" fill="#443C1C" stroke="black"/>
</svg>
